<svg xmlns="http://www.w3.org/2000/svg" width="172.239" height="175.543" viewBox="0 0 172.239 175.543"><g transform="translate(-56.666 -5776.559)"><circle cx="75" cy="75" r="75" transform="translate(67.785 5789.33)" fill="#fff"/><rect width="172.239" height="175.544" transform="translate(56.666 5776.558)" fill="none"/><path d="M128.559,5846.692v35.27l14.223,14.224,14.229-14.224v-35.27l-14.229-14.224Z" fill="#69e9f8"/><path d="M168.675,5886.791v-44.927l-25.892-25.887L116.9,5841.864v44.927l25.887,25.892Zm-40.116-40.1,14.224-14.223,14.229,14.223v35.27l-14.229,14.224-14.224-14.224Z" fill="#05dbf3"/><path d="M142.783,5915.4h0a2.715,2.715,0,0,1-1.918-.794l-25.887-25.893a2.708,2.708,0,0,1-.794-1.917v-44.927a2.713,2.713,0,0,1,.794-1.918l25.887-25.887a2.712,2.712,0,0,1,3.835,0l25.893,25.887a2.717,2.717,0,0,1,.794,1.918v44.927a2.708,2.708,0,0,1-.794,1.917L144.7,5914.6A2.713,2.713,0,0,1,142.783,5915.4Zm-23.175-29.727,23.175,23.18,23.18-23.181v-42.68l-23.18-23.175-23.175,23.175Z" fill="#453d7a"/><path d="M142.783,5898.9a2.7,2.7,0,0,1-1.918-.795l-14.223-14.223a2.71,2.71,0,0,1-.795-1.918v-35.27a2.706,2.706,0,0,1,.795-1.917l14.223-14.224a2.712,2.712,0,0,1,3.835,0l14.229,14.223a2.714,2.714,0,0,1,.795,1.918v35.27a2.713,2.713,0,0,1-.795,1.919L144.7,5898.1A2.7,2.7,0,0,1,142.783,5898.9Zm-11.512-18.059,11.512,11.511,11.517-11.511v-33.023L142.783,5836.3l-11.512,11.512Z" fill="#453d7a"/><path d="M142.783,5835.181a2.712,2.712,0,0,1-2.712-2.712v-16.492a2.712,2.712,0,0,1,5.424,0v16.492A2.712,2.712,0,0,1,142.783,5835.181Z" fill="#453d7a"/><path d="M157.013,5849.4a2.713,2.713,0,0,1-1.039-5.219l11.664-4.828a2.712,2.712,0,0,1,2.075,5.012l-11.664,4.829A2.717,2.717,0,0,1,157.013,5849.4Z" fill="#453d7a"/><path d="M168.674,5889.5a2.71,2.71,0,0,1-1.036-.207l-11.664-4.829a2.712,2.712,0,0,1,2.075-5.012l11.664,4.829a2.713,2.713,0,0,1-1.039,5.219Z" fill="#453d7a"/><path d="M142.783,5915.4a2.712,2.712,0,0,1-2.712-2.712v-16.5a2.712,2.712,0,0,1,5.424,0v16.5A2.712,2.712,0,0,1,142.783,5915.4Z" fill="#453d7a"/><path d="M116.9,5889.5a2.713,2.713,0,0,1-1.039-5.219l11.663-4.829a2.712,2.712,0,0,1,2.076,5.012l-11.664,4.829A2.71,2.71,0,0,1,116.9,5889.5Z" fill="#453d7a"/><path d="M128.558,5849.4a2.722,2.722,0,0,1-1.037-.206l-11.663-4.829a2.712,2.712,0,0,1,2.075-5.012l11.664,4.828a2.713,2.713,0,0,1-1.039,5.219Z" fill="#453d7a"/></g></svg>