<svg xmlns="http://www.w3.org/2000/svg" width="172.239" height="175.544" viewBox="0 0 172.239 175.544">
  <g id="Grupo_61679" data-name="Grupo 61679" transform="translate(-361.439 -4328.769)">
    <circle id="Elipse_4256" data-name="Elipse 4256" cx="75" cy="75" r="75" transform="translate(372.558 4341.541)" fill="#fff"/>
    <rect id="Rectángulo_6694" data-name="Rectángulo 6694" width="172.239" height="175.544" transform="translate(361.439 4328.769)" fill="none"/>
    <g id="Grupo_61682" data-name="Grupo 61682">
      <circle id="Elipse_4485" data-name="Elipse 4485" cx="45.738" cy="45.738" r="45.738" transform="translate(402.856 4371.831)" fill="#68d0e8"/>
      <g id="Grupo_61679-2" data-name="Grupo 61679">
        <rect id="Rectángulo_6695" data-name="Rectángulo 6695" width="2.904" height="2.904" transform="translate(427.831 4409.728)" fill="#453d7a"/>
        <rect id="Rectángulo_6696" data-name="Rectángulo 6696" width="2.904" height="2.904" transform="translate(440.318 4409.728)" fill="#453d7a"/>
        <rect id="Rectángulo_6697" data-name="Rectángulo 6697" width="2.904" height="2.904" transform="translate(452.659 4409.728)" fill="#453d7a"/>
        <rect id="Rectángulo_6698" data-name="Rectángulo 6698" width="2.904" height="2.904" transform="translate(441.624 4416.842)" fill="#453d7a"/>
        <rect id="Rectángulo_6699" data-name="Rectángulo 6699" width="2.904" height="2.904" transform="translate(454.112 4416.842)" fill="#453d7a"/>
        <rect id="Rectángulo_6700" data-name="Rectángulo 6700" width="2.904" height="2.904" transform="translate(466.599 4416.842)" fill="#453d7a"/>
      </g>
      <path id="Trazado_111016" data-name="Trazado 111016" d="M489.395,4373.283H463.114a3.533,3.533,0,0,0-3.485,3.485v17.569l-6.97,6.243h36.736a3.533,3.533,0,0,0,3.484-3.485v-20.327A3.533,3.533,0,0,0,489.395,4373.283Z" fill="#b8aff8"/>
      <path id="Trazado_111017" data-name="Trazado 111017" d="M489.395,4402.032H452.659a1.469,1.469,0,0,1-1.306-.871,1.637,1.637,0,0,1,.435-1.6l6.389-5.808v-16.988a4.9,4.9,0,0,1,4.937-4.937h26.281a4.9,4.9,0,0,1,4.937,4.937V4397.1A4.9,4.9,0,0,1,489.395,4402.032Zm-32.96-2.9h32.96a1.985,1.985,0,0,0,2.033-2.033v-20.327a1.986,1.986,0,0,0-2.033-2.033H463.114a1.985,1.985,0,0,0-2.033,2.033v17.569a1.316,1.316,0,0,1-.436,1.016Z" fill="#453d7a"/>
      <rect id="Rectángulo_6701" data-name="Rectángulo 6701" width="21.78" height="15.827" transform="translate(465.292 4379.091)" fill="#fff"/>
      <path id="Trazado_111018" data-name="Trazado 111018" d="M406.341,4373.283h26.281a3.533,3.533,0,0,1,3.485,3.485v17.569l6.969,6.243H406.341a3.533,3.533,0,0,1-3.484-3.484v-20.328A3.533,3.533,0,0,1,406.341,4373.283Z" fill="#fdbf5e"/>
      <path id="Trazado_111019" data-name="Trazado 111019" d="M443.076,4402.032H406.341a4.9,4.9,0,0,1-4.937-4.937v-20.327a4.9,4.9,0,0,1,4.937-4.937h26.281a4.9,4.9,0,0,1,4.937,4.937v16.988l6.244,5.663a1.482,1.482,0,0,1,.726,1.161A1.563,1.563,0,0,1,443.076,4402.032Zm-36.735-27.3a1.986,1.986,0,0,0-2.033,2.033V4397.1a1.985,1.985,0,0,0,2.033,2.033H439.3l-4.065-3.775a1.565,1.565,0,0,1-.436-1.016v-17.569a1.985,1.985,0,0,0-2.033-2.033Z" fill="#453d7a"/>
      <rect id="Rectángulo_6702" data-name="Rectángulo 6702" width="21.78" height="15.827" transform="translate(408.519 4379.091)" fill="#fff"/>
      <path id="Trazado_111020" data-name="Trazado 111020" d="M438.866,4424.393h-30.2a4.278,4.278,0,0,0-4.356,4.356v30.2a4.279,4.279,0,0,0,4.356,4.356h30.2a4.279,4.279,0,0,0,4.356-4.356v-30.2A4.278,4.278,0,0,0,438.866,4424.393Z" fill="#f4cc7e"/>
      <path id="Trazado_111021" data-name="Trazado 111021" d="M439.011,4464.758H408.519a5.767,5.767,0,0,1-5.663-5.663v-30.346a5.67,5.67,0,0,1,5.663-5.663h30.347a5.669,5.669,0,0,1,5.662,5.663V4459.1A5.546,5.546,0,0,1,439.011,4464.758Zm-30.492-38.913a2.913,2.913,0,0,0-2.9,2.9V4459.1a2.913,2.913,0,0,0,2.9,2.9h30.347a2.913,2.913,0,0,0,2.9-2.9v-30.346a2.913,2.913,0,0,0-2.9-2.9Z" fill="#453d7a"/>
      <rect id="Rectángulo_6703" data-name="Rectángulo 6703" width="27.442" height="27.442" transform="translate(410.131 4430.07)" fill="#fff"/>
      <path id="Trazado_111022" data-name="Trazado 111022" d="M488.524,4424.393h-30.2a4.278,4.278,0,0,0-4.356,4.356v30.2a4.279,4.279,0,0,0,4.356,4.356h30.2a4.279,4.279,0,0,0,4.356-4.356v-30.2A4.369,4.369,0,0,0,488.524,4424.393Z" fill="#0385a3"/>
      <path id="Trazado_111023" data-name="Trazado 111023" d="M488.524,4464.758H458.177a5.67,5.67,0,0,1-5.663-5.663v-30.346a5.67,5.67,0,0,1,5.663-5.663h30.346a5.669,5.669,0,0,1,5.663,5.663V4459.1A5.577,5.577,0,0,1,488.524,4464.758Zm-30.347-38.913a2.913,2.913,0,0,0-2.9,2.9V4459.1a2.913,2.913,0,0,0,2.9,2.9h30.346a2.912,2.912,0,0,0,2.9-2.9v-30.346a2.912,2.912,0,0,0-2.9-2.9Z" fill="#453d7a"/>
      <rect id="Rectángulo_6704" data-name="Rectángulo 6704" width="27.442" height="27.442" transform="translate(459.76 4430.096)" fill="#fff"/>
      <g id="Grupo_61680" data-name="Grupo 61680">
        <path id="Trazado_111024" data-name="Trazado 111024" d="M419.7,4448.35l-1.6,3.776h-3.049l7.26-16.553h3.049l7.26,16.553h-3.049l-1.6-3.776Zm7.115-2.613-3.049-6.824-3.049,6.824Z" fill="#193651"/>
        <path id="Trazado_111025" data-name="Trazado 111025" d="M474,4452.126h-7.26v-16.553h6.388a8.713,8.713,0,0,1,2.9.436,3.241,3.241,0,0,1,1.743,1.016,4.316,4.316,0,0,1,1.161,2.9,3.6,3.6,0,0,1-1.161,2.9,5.88,5.88,0,0,1-.581.435c-.145,0-.29.146-.581.291a4.687,4.687,0,0,1,2.469,1.452,4.057,4.057,0,0,1,.871,2.614,4.685,4.685,0,0,1-1.162,3.049C477.924,4451.545,476.327,4452.126,474,4452.126Zm-4.356-9.729h3.484c2.033,0,3.05-.726,3.05-2.033a2.407,2.407,0,0,0-.726-1.742,4.5,4.5,0,0,0-2.324-.581h-3.484v4.356Zm0,7.115H474a5.083,5.083,0,0,0,2.323-.436c.581-.29.871-.871.871-1.887q0-2.178-3.485-2.178h-4.065v4.5Z" fill="#193651"/>
        <rect id="Rectángulo_6705" data-name="Rectángulo 6705" width="2.904" height="2.904" transform="translate(468.631 4385.479)" fill="#193651"/>
        <rect id="Rectángulo_6706" data-name="Rectángulo 6706" width="2.904" height="2.904" transform="translate(474.73 4385.479)" fill="#193651"/>
        <rect id="Rectángulo_6707" data-name="Rectángulo 6707" width="2.904" height="2.904" transform="translate(480.973 4385.479)" fill="#193651"/>
      </g>
      <g id="Grupo_61681" data-name="Grupo 61681">
        <rect id="Rectángulo_6708" data-name="Rectángulo 6708" width="2.904" height="2.904" transform="translate(412.004 4385.479)" fill="#193651"/>
        <rect id="Rectángulo_6709" data-name="Rectángulo 6709" width="2.904" height="2.904" transform="translate(418.102 4385.479)" fill="#193651"/>
        <rect id="Rectángulo_6710" data-name="Rectángulo 6710" width="2.904" height="2.904" transform="translate(424.201 4385.479)" fill="#193651"/>
      </g>
    </g>
  </g>
</svg>
