<svg xmlns="http://www.w3.org/2000/svg" width="172.239" height="175.543" viewBox="0 0 172.239 175.543"><g transform="translate(-233.153 -5776.559)"><circle cx="75" cy="75" r="75" transform="translate(244.273 5789.33)" fill="#fff"/><rect width="172.239" height="175.544" transform="translate(233.153 5776.558)" fill="none"/><path d="M350.6,5820.7a1.193,1.193,0,0,0-1.194,1.193v6.745h7.939V5820.7Z" fill="#d8ebf8"/><path d="M364.093,5820.7h-6.745v7.938h7.939v-6.745a1.193,1.193,0,0,0-1.194-1.193Z" fill="#a194f5"/><path d="M349.409,5828.638h7.939v7.939h-7.939Z" fill="#a194f5"/><path d="M357.348,5828.638h7.939v7.939h-7.939Z" fill="#d8ebf8"/><path d="M349.409,5836.577h7.939v7.939h-7.939Z" fill="#d8ebf8"/><path d="M357.348,5836.577h7.939v7.939h-7.939Z" fill="#a194f5"/><path d="M349.409,5844.516h7.939v7.938h-7.939Z" fill="#a194f5"/><path d="M357.348,5844.516h7.939v7.938h-7.939Z" fill="#d8ebf8"/><path d="M349.409,5852.454h7.939v7.939h-7.939Z" fill="#d8ebf8"/><path d="M357.348,5852.454h7.939v7.939h-7.939Z" fill="#a194f5"/><path d="M357.348,5860.393h7.939v7.939h-7.939Z" fill="#d8ebf8"/><path d="M357.348,5868.332h7.939v7.938h-7.939Z" fill="#a194f5"/><path d="M357.348,5876.27h7.939v7.939h-7.939Z" fill="#d8ebf8"/><path d="M357.348,5884.209h7.939v7.938h-7.939Z" fill="#a194f5"/><path d="M357.348,5892.147h7.939v7.939h-7.939Z" fill="#d8ebf8"/><path d="M357.348,5900.086v7.939h6.745a1.194,1.194,0,0,0,1.194-1.194v-6.745Z" fill="#a194f5"/><path d="M350.64,5892.147h6.708v7.939H350.64Z" fill="#a194f5"/><path d="M353.971,5884.209a3.254,3.254,0,0,1-3.331,3.077v4.861h6.708v-7.938Z" fill="#d8ebf8"/><path d="M350.64,5876.27v4.7a3.251,3.251,0,0,1,3.336,3.159c0,.027,0,.054-.005.082h3.377v-7.939Z" fill="#a194f5"/><path d="M350.64,5868.332h6.708v7.938H350.64Z" fill="#d8ebf8"/><path d="M349.409,5860.393v6.669h.315a.969.969,0,0,1,1.08,1.08v.19h6.544v-7.939Z" fill="#a194f5"/><path d="M350.8,5900.086v.027a.968.968,0,0,1-1.08,1.079h-.315v5.639a1.194,1.194,0,0,0,1.194,1.194h6.745v-7.939Z" fill="#d8ebf8"/><path d="M355.23,5821.508a1.463,1.463,0,0,1,.243-.808H350.6a1.193,1.193,0,0,0-1.194,1.193v6.745h5.821Z" fill="#b4dbff"/><path d="M349.409,5828.638h5.821v7.939h-5.821Z" fill="#8979f3"/><path d="M349.409,5836.577h5.821v7.939h-5.821Z" fill="#b4dbff"/><path d="M349.409,5844.516h5.821v7.938h-5.821Z" fill="#8979f3"/><path d="M349.409,5852.454h5.821v7.939h-5.821Z" fill="#b4dbff"/><path d="M350.64,5892.147h4.59v7.939h-4.59Z" fill="#8979f3"/><path d="M355.23,5884.209h-1.258a3.254,3.254,0,0,1-3.332,3.077v4.861h4.59Z" fill="#b4dbff"/><path d="M355.23,5884.209v-7.939h-4.59v4.7a3.251,3.251,0,0,1,3.336,3.159c0,.027,0,.054-.005.082Z" fill="#8979f3"/><path d="M350.64,5868.332h4.59v7.938h-4.59Z" fill="#b4dbff"/><path d="M355.23,5868.332v-7.939h-5.821v6.669h.315a.969.969,0,0,1,1.08,1.08v.19Z" fill="#8979f3"/><path d="M355.23,5907.217v-7.131H350.8v.027a.968.968,0,0,1-1.08,1.079h-.315v5.639a1.194,1.194,0,0,0,1.194,1.194h4.87a1.466,1.466,0,0,1-.243-.808Z" fill="#b4dbff"/><path d="M287.515,5838.047H300.4a18.107,18.107,0,0,1,6.076,1.05l1.1.392-2.1-5.738a4.238,4.238,0,0,0-3.972-2.795H288.08a1.937,1.937,0,0,0-1.926,1.948,5.439,5.439,0,0,1-1.317,3.552l-1.881,2.177a18.134,18.134,0,0,1,4.559-.586Z" fill="#d9edff"/><path d="M290.662,5836.456a5.435,5.435,0,0,0,1.318-3.552,1.937,1.937,0,0,1,1.926-1.947H288.08a1.937,1.937,0,0,0-1.926,1.947,5.439,5.439,0,0,1-1.317,3.552l-1.881,2.177a18.134,18.134,0,0,1,4.559-.586h1.774Z" fill="#b4dbff"/><path d="M305.475,5833.751a4.238,4.238,0,0,0-3.972-2.795h-5.344a4.239,4.239,0,0,1,3.972,2.795l1.594,4.347a18.1,18.1,0,0,1,4.75,1l1.1.393Z" fill="#8bcaff"/><path d="M287.515,5850.991H300.4a18.13,18.13,0,0,0,6.076-1.049l1.1-.393-2.1,5.734a4.24,4.24,0,0,1-3.972,2.792H288.08a1.937,1.937,0,0,1-1.926-1.946,5.431,5.431,0,0,0-1.317-3.549l-1.881-2.175a18.157,18.157,0,0,0,4.559.586Z" fill="#d9edff"/><path d="M291.98,5856.121a5.423,5.423,0,0,0-1.318-3.548l-1.373-1.589h-1.774a18.1,18.1,0,0,1-4.559-.587l1.881,2.176a5.429,5.429,0,0,1,1.317,3.548,1.936,1.936,0,0,0,1.926,1.946h5.826A1.936,1.936,0,0,1,291.98,5856.121Z" fill="#b4dbff"/><path d="M306.475,5849.942a18.135,18.135,0,0,1-4.751,1l-1.594,4.344a4.238,4.238,0,0,1-3.971,2.792H301.5a4.24,4.24,0,0,0,3.972-2.792l2.1-5.733Z" fill="#8bcaff"/><path d="M306.413,5838.23a2.091,2.091,0,0,1-1.671-1.348l-1.148-3.131a4.237,4.237,0,0,0-3.971-2.795h-3.464a4.239,4.239,0,0,1,3.972,2.795l1.594,4.347a18.1,18.1,0,0,1,4.75,1l1.1.393-.417-1.136C306.913,5838.307,306.664,5838.265,306.413,5838.23Z" fill="#60b8ff"/><path d="M303.594,5855.283l1.148-3.128a2.09,2.09,0,0,1,1.671-1.347c.251-.036.5-.077.749-.123l.417-1.135-1.1.392a18.136,18.136,0,0,1-4.75,1l-1.594,4.344a4.24,4.24,0,0,1-3.972,2.792h3.464A4.237,4.237,0,0,0,303.594,5855.283Z" fill="#60b8ff"/><path d="M335.843,5827.259H331.4a1.282,1.282,0,0,0-1.272,1.292v5.015a1.511,1.511,0,0,0,.726,1.3l.013.007a1.511,1.511,0,0,1,.726,1.3,6.469,6.469,0,0,0,.445,2.359l1.2,3.066h3.877v-13.039a1.282,1.282,0,0,0-1.272-1.292Z" fill="#8bcaff"/><path d="M335.843,5861.773H331.4a1.281,1.281,0,0,1-1.272-1.29v-5a1.506,1.506,0,0,1,.726-1.292l.013-.007a1.508,1.508,0,0,0,.726-1.293,6.443,6.443,0,0,1,.445-2.353l1.2-3.059h3.877v13.006a1.281,1.281,0,0,1-1.272,1.29Z" fill="#8bcaff"/><path d="M336.027,5838.524a6.49,6.49,0,0,1-.444-2.359,1.511,1.511,0,0,0-.726-1.3l-.013-.007a1.511,1.511,0,0,1-.726-1.3v-5.015a1.282,1.282,0,0,1,1.272-1.292H331.4a1.282,1.282,0,0,0-1.272,1.292v5.015a1.511,1.511,0,0,0,.726,1.3l.013.007a1.511,1.511,0,0,1,.726,1.3,6.469,6.469,0,0,0,.445,2.359l1.2,3.066h3.877v-.284Z" fill="#60b8ff"/><path d="M334.118,5860.483v-5a1.507,1.507,0,0,1,.726-1.292l.013-.007a1.506,1.506,0,0,0,.726-1.292,6.464,6.464,0,0,1,.444-2.354l1.088-2.775v-.283h-3.877l-1.2,3.058a6.444,6.444,0,0,0-.445,2.354,1.507,1.507,0,0,1-.726,1.292l-.013.007a1.506,1.506,0,0,0-.726,1.292v5a1.281,1.281,0,0,0,1.272,1.29h3.989a1.281,1.281,0,0,1-1.272-1.29Z" fill="#60b8ff"/><path d="M330.959,5841.357H318.7a32.437,32.437,0,0,1-10.774-1.841l-1.451-.511a18.3,18.3,0,0,0-6.076-1.038h-6.084c-.34.039-.669.085-.99.141a6.512,6.512,0,0,0,0,12.816q.479.083.987.14H300.4a18.3,18.3,0,0,0,6.076-1.038l1.451-.511a32.458,32.458,0,0,1,10.774-1.841h12.259a3.265,3.265,0,0,0,0-6.317Z" fill="#8bcaff"/><path d="M293.738,5844.516a6.492,6.492,0,0,1,5.354-6.408c.321-.056.65-.1.99-.141h-5.767c-.34.039-.669.085-.99.141a6.512,6.512,0,0,0,0,12.816c.32.055.648.1.987.14h5.768q-.508-.057-.987-.14A6.489,6.489,0,0,1,293.738,5844.516Z" fill="#60b8ff"/><path d="M337.115,5841.357h-6.986a3.158,3.158,0,1,1,0,6.317h6.986a3.158,3.158,0,1,0,0-6.317Z" fill="#60b8ff"/><path d="M337.732,5844.516a3.158,3.158,0,0,0-3.158-3.159h-4.445a3.158,3.158,0,1,1,0,6.317h4.445A3.158,3.158,0,0,0,337.732,5844.516Z" fill="#22a7ff"/><path d="M288.115,5844.516a6.381,6.381,0,0,1,5.263-6.3,17.515,17.515,0,0,1,3.032-.251h-8.895a18.287,18.287,0,0,0-5.661.9l-2.826.856v9.589l2.826.856a18.286,18.286,0,0,0,5.661.9h8.895a17.468,17.468,0,0,1-3.035-.251A6.377,6.377,0,0,1,288.115,5844.516Z" fill="#b4dbff"/><path d="M284.8,5848.616v-8.2a3.9,3.9,0,0,1,.779-2.342,18.3,18.3,0,0,0-3.721.792l-2.826.856v9.589l2.826.856a18.3,18.3,0,0,0,3.721.792A3.9,3.9,0,0,1,284.8,5848.616Z" fill="#8bcaff"/><path d="M305.73,5841.819h-7.722a1.854,1.854,0,0,0-1.849,1.849v1.695a1.854,1.854,0,0,0,1.849,1.849h7.722a1.854,1.854,0,0,0,1.849-1.849v-1.695A1.854,1.854,0,0,0,305.73,5841.819Z" fill="#60b8ff"/><path d="M301.926,5845.363v-1.695a1.854,1.854,0,0,1,1.849-1.849h-5.767a1.854,1.854,0,0,0-1.849,1.849v1.695a1.854,1.854,0,0,0,1.849,1.849h5.767A1.854,1.854,0,0,1,301.926,5845.363Z" fill="#22a7ff"/><path d="M324.827,5827.259h-7.45a1.571,1.571,0,0,0-1.567,1.566v3.493a1.571,1.571,0,0,0,1.567,1.566h7.45a1.571,1.571,0,0,0,1.566-1.566v-3.493A1.571,1.571,0,0,0,324.827,5827.259Z" fill="#564f57"/><path d="M281.39,5827.259h-7.45a1.571,1.571,0,0,0-1.567,1.566v3.493a1.571,1.571,0,0,0,1.567,1.566h7.45a1.57,1.57,0,0,0,1.566-1.566v-3.493A1.57,1.57,0,0,0,281.39,5827.259Z" fill="#564f57"/><path d="M324.827,5861.773h-7.45a1.571,1.571,0,0,1-1.567-1.567v-3.492a1.571,1.571,0,0,1,1.567-1.567h7.45a1.571,1.571,0,0,1,1.566,1.567v3.492A1.571,1.571,0,0,1,324.827,5861.773Z" fill="#564f57"/><path d="M281.39,5861.773h-7.45a1.571,1.571,0,0,1-1.567-1.567v-3.492a1.571,1.571,0,0,1,1.567-1.567h7.45a1.571,1.571,0,0,1,1.566,1.567v3.492A1.571,1.571,0,0,1,281.39,5861.773Z" fill="#564f57"/><path d="M321.53,5832.318v-3.493a1.571,1.571,0,0,1,1.567-1.566h-5.72a1.571,1.571,0,0,0-1.567,1.566v3.493a1.571,1.571,0,0,0,1.567,1.566h5.72A1.571,1.571,0,0,1,321.53,5832.318Z" fill="#433f43"/><path d="M278.093,5832.318v-3.493a1.571,1.571,0,0,1,1.567-1.566h-5.72a1.571,1.571,0,0,0-1.567,1.566v3.493a1.571,1.571,0,0,0,1.567,1.566h5.72A1.571,1.571,0,0,1,278.093,5832.318Z" fill="#433f43"/><path d="M321.53,5860.206v-3.492a1.571,1.571,0,0,1,1.567-1.567h-5.72a1.571,1.571,0,0,0-1.567,1.567v3.492a1.571,1.571,0,0,0,1.567,1.567h5.72A1.571,1.571,0,0,1,321.53,5860.206Z" fill="#433f43"/><path d="M278.093,5860.206v-3.492a1.571,1.571,0,0,1,1.567-1.567h-5.72a1.571,1.571,0,0,0-1.567,1.567v3.492a1.571,1.571,0,0,0,1.567,1.567h5.72A1.571,1.571,0,0,1,278.093,5860.206Z" fill="#433f43"/><path d="M277.372,5837.043h-5.778a1.854,1.854,0,0,0-1.849,1.849v11.247a1.854,1.854,0,0,0,1.849,1.849h5.778a1.854,1.854,0,0,0,1.849-1.849v-11.247A1.854,1.854,0,0,0,277.372,5837.043Z" fill="#d9edff"/><path d="M275.512,5850.14v-11.248a1.854,1.854,0,0,1,1.849-1.849h-5.768a1.854,1.854,0,0,0-1.848,1.849v11.248a1.854,1.854,0,0,0,1.848,1.849h5.768A1.854,1.854,0,0,1,275.512,5850.14Z" fill="#b4dbff"/><path d="M301.4,5877.658H314.28a18.119,18.119,0,0,1,6.076,1.05l1.1.393-2.1-5.738a4.237,4.237,0,0,0-3.971-2.795H301.961a1.937,1.937,0,0,0-1.926,1.948,5.43,5.43,0,0,1-1.318,3.551l-1.88,2.178a18.1,18.1,0,0,1,4.559-.587Z" fill="#68d0e8"/><path d="M304.543,5876.067a5.435,5.435,0,0,0,1.318-3.551,1.937,1.937,0,0,1,1.926-1.948h-5.826a1.938,1.938,0,0,0-1.926,1.948,5.434,5.434,0,0,1-1.317,3.551l-1.881,2.178a18.107,18.107,0,0,1,4.559-.587h1.774Z" fill="#36c1e1"/><path d="M319.355,5873.362a4.238,4.238,0,0,0-3.971-2.794H310.04a4.238,4.238,0,0,1,3.971,2.794l1.594,4.348a18.136,18.136,0,0,1,4.751,1l1.1.393Z" fill="#69e9f8"/><path d="M301.4,5890.6H314.28a18.119,18.119,0,0,0,6.076-1.05l1.1-.392-2.1,5.733a4.237,4.237,0,0,1-3.971,2.792H301.961a1.936,1.936,0,0,1-1.926-1.946,5.423,5.423,0,0,0-1.318-3.548l-1.88-2.176a18.123,18.123,0,0,0,4.559.587Z" fill="#68d0e8"/><path d="M305.861,5895.733a5.432,5.432,0,0,0-1.318-3.549l-1.374-1.589H301.4a18.145,18.145,0,0,1-4.559-.586l1.88,2.175a5.427,5.427,0,0,1,1.318,3.549,1.936,1.936,0,0,0,1.926,1.946h5.825a1.936,1.936,0,0,1-1.925-1.946Z" fill="#36c1e1"/><path d="M320.356,5889.554a18.154,18.154,0,0,1-4.751,1l-1.594,4.343a4.238,4.238,0,0,1-3.971,2.792h5.344a4.237,4.237,0,0,0,3.971-2.792l2.1-5.733Z" fill="#69e9f8"/><path d="M320.294,5877.841a2.088,2.088,0,0,1-1.671-1.348l-1.148-3.131a4.239,4.239,0,0,0-3.971-2.794H310.04a4.238,4.238,0,0,1,3.971,2.794l1.594,4.348a18.136,18.136,0,0,1,4.751,1l1.1.393-.416-1.136c-.249-.046-.5-.088-.749-.124Z" fill="#37e2f5"/><path d="M317.475,5894.894l1.148-3.127a2.09,2.09,0,0,1,1.671-1.348c.25-.035.5-.077.749-.123l.416-1.135-1.1.393a18.154,18.154,0,0,1-4.751,1l-1.594,4.343a4.237,4.237,0,0,1-3.971,2.792H313.5a4.238,4.238,0,0,0,3.971-2.792Z" fill="#37e2f5"/><path d="M349.724,5866.87h-4.442a1.282,1.282,0,0,0-1.272,1.293v5.015a1.51,1.51,0,0,0,.726,1.295l.012.008a1.509,1.509,0,0,1,.727,1.295,6.486,6.486,0,0,0,.444,2.359l1.2,3.067H351v-13.039a1.282,1.282,0,0,0-1.272-1.293Z" fill="#69e9f8"/><path d="M349.724,5901.384h-4.442a1.28,1.28,0,0,1-1.272-1.289v-5a1.508,1.508,0,0,1,.726-1.293l.012-.007a1.5,1.5,0,0,0,.727-1.292,6.459,6.459,0,0,1,.444-2.353l1.2-3.059H351V5900.1a1.28,1.28,0,0,1-1.272,1.289Z" fill="#69e9f8"/><path d="M349.908,5878.135a6.49,6.49,0,0,1-.444-2.359,1.511,1.511,0,0,0-.727-1.295l-.012-.008a1.51,1.51,0,0,1-.726-1.295v-5.015a1.282,1.282,0,0,1,1.271-1.293h-3.988a1.282,1.282,0,0,0-1.272,1.293v5.015a1.51,1.51,0,0,0,.726,1.295l.012.008a1.509,1.509,0,0,1,.727,1.295,6.465,6.465,0,0,0,.444,2.359l1.2,3.067H351v-.285Z" fill="#05dbf3"/><path d="M348,5900.1v-5a1.508,1.508,0,0,1,.726-1.293l.012-.007a1.5,1.5,0,0,0,.727-1.292,6.459,6.459,0,0,1,.444-2.353l1.088-2.775v-.284h-3.877l-1.2,3.059a6.459,6.459,0,0,0-.444,2.353,1.5,1.5,0,0,1-.727,1.292l-.012.007a1.508,1.508,0,0,0-.726,1.293v5a1.28,1.28,0,0,0,1.272,1.289h3.989A1.28,1.28,0,0,1,348,5900.1Z" fill="#05dbf3"/><path d="M344.839,5880.969H332.581a32.45,32.45,0,0,1-10.774-1.841l-1.451-.511a18.3,18.3,0,0,0-6.076-1.038H308.2c-.339.038-.668.085-.989.141a6.511,6.511,0,0,0,0,12.815c.32.056.648.1.987.141h6.09a18.28,18.28,0,0,0,6.076-1.039l1.451-.51a32.437,32.437,0,0,1,10.774-1.841H344.84a3.264,3.264,0,0,0,0-6.317Z" fill="#69e9f8"/><path d="M307.618,5884.128a6.491,6.491,0,0,1,5.355-6.408q.48-.084.989-.141H308.2q-.509.057-.989.141a6.511,6.511,0,0,0,0,12.815c.32.056.648.1.987.141h5.767c-.339-.039-.667-.085-.987-.141A6.489,6.489,0,0,1,307.618,5884.128Z" fill="#05dbf3"/><path d="M351,5880.969H344.01a3.158,3.158,0,1,1,0,6.317H351a3.158,3.158,0,1,0,0-6.317Z" fill="#69e9f8"/><path d="M351.613,5884.127a3.158,3.158,0,0,0-3.158-3.158H344.01a3.158,3.158,0,1,1,0,6.317h4.445A3.158,3.158,0,0,0,351.613,5884.127Z" fill="#05dbf3"/><path d="M302,5884.128a6.38,6.38,0,0,1,5.263-6.3,17.466,17.466,0,0,1,3.032-.251H301.4a18.314,18.314,0,0,0-5.661.9l-2.826.857v9.588l2.826.857a18.314,18.314,0,0,0,5.661.9h8.895a17.57,17.57,0,0,1-3.035-.25A6.377,6.377,0,0,1,302,5884.128Z" fill="#b4dbff"/><path d="M298.676,5888.228v-8.2a3.908,3.908,0,0,1,.779-2.341,18.232,18.232,0,0,0-3.72.791l-2.826.857v9.588l2.826.857a18.218,18.218,0,0,0,3.72.791,3.9,3.9,0,0,1-.779-2.341Z" fill="#8bcaff"/><path d="M319.61,5881.431h-7.721a1.854,1.854,0,0,0-1.849,1.849v1.7a1.854,1.854,0,0,0,1.849,1.849h7.721a1.854,1.854,0,0,0,1.849-1.849v-1.7A1.854,1.854,0,0,0,319.61,5881.431Z" fill="#69e9f8"/><path d="M315.807,5884.975v-1.7a1.854,1.854,0,0,1,1.849-1.849h-5.767a1.854,1.854,0,0,0-1.849,1.849v1.7a1.854,1.854,0,0,0,1.849,1.849h5.767a1.854,1.854,0,0,1-1.849-1.849Z" fill="#05dbf3"/><path d="M338.707,5866.87h-7.45a1.571,1.571,0,0,0-1.566,1.567v3.492a1.571,1.571,0,0,0,1.566,1.567h7.45a1.571,1.571,0,0,0,1.567-1.567v-3.492A1.571,1.571,0,0,0,338.707,5866.87Z" fill="#564f57"/><path d="M295.271,5866.87h-7.45a1.571,1.571,0,0,0-1.567,1.567v3.492a1.571,1.571,0,0,0,1.567,1.567h7.45a1.571,1.571,0,0,0,1.566-1.567v-3.492A1.571,1.571,0,0,0,295.271,5866.87Z" fill="#564f57"/><path d="M338.707,5901.384h-7.45a1.571,1.571,0,0,1-1.566-1.566v-3.493a1.57,1.57,0,0,1,1.566-1.566h7.45a1.571,1.571,0,0,1,1.567,1.566v3.493A1.571,1.571,0,0,1,338.707,5901.384Z" fill="#564f57"/><path d="M295.271,5901.384h-7.45a1.571,1.571,0,0,1-1.567-1.566v-3.493a1.571,1.571,0,0,1,1.567-1.566h7.45a1.571,1.571,0,0,1,1.566,1.566v3.493A1.571,1.571,0,0,1,295.271,5901.384Z" fill="#564f57"/><path d="M335.411,5871.929v-3.492a1.571,1.571,0,0,1,1.567-1.567h-5.72a1.571,1.571,0,0,0-1.567,1.567v3.492a1.571,1.571,0,0,0,1.567,1.567h5.72A1.572,1.572,0,0,1,335.411,5871.929Z" fill="#433f43"/><path d="M291.974,5871.929v-3.492a1.571,1.571,0,0,1,1.567-1.567h-5.72a1.571,1.571,0,0,0-1.567,1.567v3.492a1.571,1.571,0,0,0,1.567,1.567h5.72A1.572,1.572,0,0,1,291.974,5871.929Z" fill="#433f43"/><path d="M335.411,5899.818v-3.493a1.571,1.571,0,0,1,1.567-1.566h-5.72a1.571,1.571,0,0,0-1.567,1.566v3.493a1.571,1.571,0,0,0,1.567,1.566h5.72A1.571,1.571,0,0,1,335.411,5899.818Z" fill="#433f43"/><path d="M291.974,5899.818v-3.493a1.571,1.571,0,0,1,1.567-1.566h-5.72a1.571,1.571,0,0,0-1.567,1.566v3.493a1.571,1.571,0,0,0,1.567,1.566h5.72A1.571,1.571,0,0,1,291.974,5899.818Z" fill="#433f43"/><path d="M291.252,5876.654h-5.778a1.854,1.854,0,0,0-1.849,1.849v11.248a1.854,1.854,0,0,0,1.849,1.849h5.778a1.854,1.854,0,0,0,1.849-1.849V5878.5A1.854,1.854,0,0,0,291.252,5876.654Z" fill="#d9edff"/><path d="M289.393,5889.751V5878.5a1.854,1.854,0,0,1,1.849-1.849h-5.768a1.854,1.854,0,0,0-1.849,1.849v11.248a1.854,1.854,0,0,0,1.849,1.849h5.768A1.854,1.854,0,0,1,289.393,5889.751Z" fill="#b4dbff"/><path d="M271.585,5835.65a3.3,3.3,0,0,0-3.291,3.291v11.248a3.3,3.3,0,0,0,3.291,3.291h4.629v.275h-2.283a3.012,3.012,0,0,0-3.008,3.008v3.493a3.012,3.012,0,0,0,3.008,3.008h7.45a3.012,3.012,0,0,0,3.008-3.008v-3.493a3.012,3.012,0,0,0-2.506-2.963l1.032-1.112.827.946a3.9,3.9,0,0,1,.962,2.564,3.371,3.371,0,0,0,3.368,3.368h13.422a5.7,5.7,0,0,0,5.324-3.7l1.867-5.036a30.916,30.916,0,0,1,7.2-1.532l1.911,4.461h-.424a3.011,3.011,0,0,0-3.008,3.008v3.493a3.012,3.012,0,0,0,3.008,3.008h7.45a3.012,3.012,0,0,0,3.008-3.008v-3.493a3.011,3.011,0,0,0-3.008-3.008h-1.6v-4.589H331.1l-.414,1.042a7.674,7.674,0,0,0-.546,2.853c0,.014-.008.027-.032.041a2.935,2.935,0,0,0-1.433,2.515v4.933a2.716,2.716,0,0,0,2.713,2.714h4.443a2.716,2.716,0,0,0,2.713-2.714v-11.617a4.6,4.6,0,0,0,0-8.736v-2.9a1.441,1.441,0,1,0-2.883,0v2.667h-1.458l-.837-2.108a4.8,4.8,0,0,1-.343-1.788,2.94,2.94,0,0,0-1.446-2.522.039.039,0,0,1-.019-.034v-4.763h4.1v1.819a1.441,1.441,0,1,0,2.883,0v-1.989a2.717,2.717,0,0,0-2.713-2.714h-4.443a2.717,2.717,0,0,0-2.713,2.714v4.933a2.939,2.939,0,0,0,1.446,2.522.039.039,0,0,1,.019.034,7.7,7.7,0,0,0,.546,2.854l.415,1.042h-7.887v-4.59h1.6a3.012,3.012,0,0,0,3.009-3.008v-3.492a3.012,3.012,0,0,0-3.009-3.009h-7.45a3.011,3.011,0,0,0-3.008,3.009v3.492a3.012,3.012,0,0,0,3.008,3.008h.424l-1.911,4.461a30.943,30.943,0,0,1-7.2-1.532l-1.868-5.036a5.7,5.7,0,0,0-5.323-3.7H288.072a3.372,3.372,0,0,0-3.368,3.368c0,1.667-.9,2.5-1.788,3.51l-1.032-1.112a3.011,3.011,0,0,0,2.506-2.963v-3.492a3.012,3.012,0,0,0-3.008-3.009h-7.451a3.011,3.011,0,0,0-3.008,3.009v3.492a3.012,3.012,0,0,0,3.008,3.008h2.283v.275Zm15.922,3.809h1.033a7.9,7.9,0,0,0,0,10.213h-1.03a19.911,19.911,0,0,1-6.853-1.36v-7.494A19.914,19.914,0,0,1,287.507,5839.459Zm12.883,0a17.146,17.146,0,0,1,5.691.989c-.27-.03.248-.021-8.082-.021a3.294,3.294,0,0,0-3.29,3.291v1.694A3.294,3.294,0,0,0,298,5848.7c8.329,0,7.812.009,8.082-.021a17.143,17.143,0,0,1-5.691.99H296.4a16.176,16.176,0,0,1-2.788-.229,4.958,4.958,0,0,1,0-9.755,16.207,16.207,0,0,1,2.785-.229Zm5.738,5.953a.413.413,0,0,1-.407.408H298a.413.413,0,0,1-.407-.408v-1.694a.413.413,0,0,1,.407-.407h7.722a.412.412,0,0,1,.407.407Zm-34.95,4.777v-11.248a.413.413,0,0,1,.407-.407h5.778a.413.413,0,0,1,.407.407v11.248a.412.412,0,0,1-.407.407h-5.778A.412.412,0,0,1,271.178,5850.189Zm10.328,10.067a.129.129,0,0,1-.125.124h-7.45a.129.129,0,0,1-.124-.124v-3.493a.129.129,0,0,1,.124-.124h7.45a.129.129,0,0,1,.125.124v3.493Zm6.566-3.574a.485.485,0,0,1-.485-.484,6.781,6.781,0,0,0-1.078-3.668c.684.035.395.025,13.116.025l-.855,2.3a2.8,2.8,0,0,1-2.62,1.822Zm13.422,0h-.4a5.58,5.58,0,0,0,.382-.82l1.278-3.449a20.342,20.342,0,0,0,2.436-.449l-1.074,2.9a2.8,2.8,0,0,1-2.62,1.822Zm23.449.081v3.493a.13.13,0,0,1-.125.124h-7.45a.129.129,0,0,1-.124-.124v-3.493a.129.129,0,0,1,.124-.124h7.45A.13.13,0,0,1,324.943,5856.763Zm-4.609-4.4-1.371-3.2h1.371Zm-1.643-6.084a33.787,33.787,0,0,0-11.217,1.911,3.289,3.289,0,0,0,1.538-2.78v-1.7a3.288,3.288,0,0,0-1.538-2.78,33.822,33.822,0,0,0,11.217,1.911H330.12a1.717,1.717,0,0,1,0,3.434H318.691Zm16.974,14.1h-4.1v-4.763c0-.013.007-.026.032-.041a2.936,2.936,0,0,0,1.433-2.515,4.826,4.826,0,0,1,.343-1.788l.837-2.107h1.458v11.214Zm1.442-17.532a1.717,1.717,0,0,1,0,3.434h-2.719a4.593,4.593,0,0,0,0-3.434Zm-18.144-2.883,1.371-3.2v3.2Zm-1.72-7.6v-3.492a.13.13,0,0,1,.125-.125h7.45a.131.131,0,0,1,.125.125v3.492a.131.131,0,0,1-.125.125h-7.45a.131.131,0,0,1-.125-.125Zm-15.749.081a2.8,2.8,0,0,1,2.62,1.822l1.074,2.9a20.6,20.6,0,0,0-2.435-.449l-1.279-3.449a5.551,5.551,0,0,0-.382-.82Zm-13.907.484a.484.484,0,0,1,.485-.484h8.078a2.8,2.8,0,0,1,2.62,1.822l.854,2.305H287.507c-.332,0-.8.015-1,.025A6.77,6.77,0,0,0,287.587,5832.932Zm-13.78-.565v-3.492a.129.129,0,0,1,.124-.125h7.45a.13.13,0,0,1,.125.125v3.492a.131.131,0,0,1-.125.125h-7.45A.13.13,0,0,1,273.807,5832.367Z" fill="#453d7a"/><path d="M364.084,5819.226h-13.49a2.638,2.638,0,0,0-2.635,2.635V5865.4h-2.686a2.718,2.718,0,0,0-2.714,2.714v4.933a2.942,2.942,0,0,0,1.446,2.522.04.04,0,0,1,.02.034,7.683,7.683,0,0,0,.546,2.854l.414,1.042H337.1v-4.59h1.6a3.011,3.011,0,0,0,3.008-3.008V5868.4a3.012,3.012,0,0,0-3.008-3.008h-7.45a3.012,3.012,0,0,0-3.008,3.008v3.493a3.011,3.011,0,0,0,3.008,3.008h.424l-1.912,4.461a30.944,30.944,0,0,1-7.195-1.532L320.7,5872.8a5.7,5.7,0,0,0-5.324-3.7h-5.5a1.442,1.442,0,1,0,0,2.884h.159a2.8,2.8,0,0,1,2.62,1.822l.854,2.305H301.387c-.225,0-.451,0-.677.013l-.191.007-.129,0a6.77,6.77,0,0,0,1.078-3.668.486.486,0,0,1,.485-.485h1.19a1.441,1.441,0,1,0,0-2.883h-1.19a3.371,3.371,0,0,0-3.368,3.368,3.9,3.9,0,0,1-.962,2.563l-.827.947-1.032-1.112a3.011,3.011,0,0,0,2.506-2.963V5868.4a3.011,3.011,0,0,0-3.008-3.008h-7.45a3.012,3.012,0,0,0-3.008,3.008v3.493a3.011,3.011,0,0,0,3.008,3.008H290.1v.275h-4.629a3.294,3.294,0,0,0-3.291,3.291v11.248a3.3,3.3,0,0,0,3.291,3.291H290.1v.275h-2.283a3.011,3.011,0,0,0-3.008,3.008v3.492a3.012,3.012,0,0,0,3.008,3.009h7.45a3.012,3.012,0,0,0,3.008-3.009v-3.492a3.011,3.011,0,0,0-2.506-2.963l1.032-1.112.827.947a3.9,3.9,0,0,1,.962,2.563,3.371,3.371,0,0,0,3.367,3.368h13.423a5.7,5.7,0,0,0,5.324-3.7l1.867-5.036a30.918,30.918,0,0,1,7.195-1.532l1.911,4.461h-.423a3.011,3.011,0,0,0-3.009,3.008v3.492a3.013,3.013,0,0,0,3.009,3.009h7.45a3.012,3.012,0,0,0,3.008-3.009v-3.492a3.011,3.011,0,0,0-3.008-3.008h-1.6v-4.59h7.887l-.415,1.043a7.694,7.694,0,0,0-.546,2.853c0,.014-.007.027-.031.041a2.937,2.937,0,0,0-1.434,2.515v4.933a2.717,2.717,0,0,0,2.714,2.714h2.686v4a2.638,2.638,0,0,0,2.635,2.635h13.49a2.638,2.638,0,0,0,2.635-2.635v-84.938a2.637,2.637,0,0,0-2.635-2.635Zm-48.709,52.752a2.8,2.8,0,0,1,2.62,1.822l1.074,2.9a20.374,20.374,0,0,0-2.436-.449l-1.278-3.449a5.79,5.79,0,0,0-.382-.82Zm-27.563.044a.131.131,0,0,1-.125-.125V5868.4a.13.13,0,0,1,.125-.124h7.45a.13.13,0,0,1,.125.124v3.493a.131.131,0,0,1-.125.125Zm-2.346,18.1a.412.412,0,0,1-.407-.407v-11.248a.412.412,0,0,1,.407-.407h5.778a.413.413,0,0,1,.407.407v11.248a.413.413,0,0,1-.407.407Zm9.921,9.66a.13.13,0,0,1-.125.124h-7.45a.129.129,0,0,1-.124-.124v-3.493a.13.13,0,0,1,.124-.125h7.45a.13.13,0,0,1,.125.125Zm-.852-11.944v-7.494a19.891,19.891,0,0,1,6.852-1.359h1.033a7.9,7.9,0,0,0,0,10.213C299.334,5889.2,298.558,5889.151,294.535,5887.842Zm18.116,6.548a2.8,2.8,0,0,1-2.62,1.822h-8.079a.484.484,0,0,1-.484-.484,6.778,6.778,0,0,0-1.078-3.668c.193.009.686.025,1,.025h12.118Zm5.344,0a2.8,2.8,0,0,1-2.62,1.822h-.4a5.652,5.652,0,0,0,.381-.82l1.279-3.449a20.419,20.419,0,0,0,2.435-.449Zm-2.5-5.236h-.006c-.837.06-.817.047-5.2.047a16.127,16.127,0,0,1-2.788-.23,4.958,4.958,0,0,1,0-9.754,16.207,16.207,0,0,1,2.785-.229h3.989a17.1,17.1,0,0,1,5.691.989c-.271-.03.248-.021-8.082-.021a3.294,3.294,0,0,0-3.291,3.291v1.694a3.294,3.294,0,0,0,3.291,3.291c8.33,0,7.811.009,8.081-.02a17.036,17.036,0,0,1-4.469.941Zm4.517-4.212a.413.413,0,0,1-.407.408H311.88a.413.413,0,0,1-.407-.408v-1.694a.412.412,0,0,1,.407-.407H319.6a.412.412,0,0,1,.407.407Zm25.434-16.662h4.1v11.214h-1.458l-.838-2.107a4.823,4.823,0,0,1-.342-1.788,2.938,2.938,0,0,0-1.446-2.522.04.04,0,0,1-.019-.034Zm-14.194,3.742a.13.13,0,0,1-.125-.125V5868.4a.13.13,0,0,1,.125-.124h7.45a.129.129,0,0,1,.124.124v3.493a.13.13,0,0,1-.124.125h-7.45Zm2.966,4.272v3.2h-1.372Zm4.484,19.874a.13.13,0,0,1,.124.125v3.493a.129.129,0,0,1-.124.124h-7.45a.129.129,0,0,1-.125-.124v-3.493a.131.131,0,0,1,.125-.125h7.45Zm-5.856-7.472h1.372v3.2ZM344,5885.812H332.572a33.816,33.816,0,0,0-11.217,1.91,3.289,3.289,0,0,0,1.538-2.78v-1.694a3.289,3.289,0,0,0-1.538-2.78,33.812,33.812,0,0,0,11.217,1.91H344a1.717,1.717,0,0,1,0,3.434Zm5.545,13.41a.689.689,0,0,1-.689.688h-3.414v-4.763c0-.018.013-.034.058-.054a2.479,2.479,0,0,0,1.408-2.38,4.827,4.827,0,0,1,.341-1.91l.838-2.107h1.457c0,.251,0,10.362,0,10.526Zm-1.277-13.41a4.594,4.594,0,0,0,0-3.434h2.718a1.717,1.717,0,0,1,1.714,1.758v0a1.714,1.714,0,0,1-1.713,1.672Zm7.628,20.739h-5.055v-4a2.723,2.723,0,0,0,1.184-1.051H355.9Zm0-7.939h-3.468v-5.055H355.9Zm0-7.939h-3.468v-2.2a4.559,4.559,0,0,0,2.9-2.85h.566Zm0-7.938h-.514a4.632,4.632,0,0,0-2.954-3.009v-2.046H355.9Zm0-7.939h-3.468v-5.055H355.9Zm0-7.938h-3.774a2.774,2.774,0,0,0-1.281-1.217V5861.8H355.9Zm0-7.939h-5.055v-5.055H355.9Zm0-7.939h-5.055v-5.055H355.9Zm0-7.938h-5.055v-5.055H355.9Zm0-7.939h-5.055v-5.055H355.9Zm0-7.939h-5.055v-5.055H355.9Zm7.939,79.387h-5.055V5901.5h5.055Zm0-7.939h-5.055v-5.055h5.055Zm0-7.939h-5.055v-5.055h5.055Zm0-7.938h-5.055v-5.055h5.055Zm0-7.939h-5.055v-5.055h5.055Zm0-7.938h-5.055V5861.8h5.055Zm0-7.939h-5.055v-5.055h5.055Zm0-7.939h-5.055v-5.055h5.055Zm0-7.938h-5.055v-5.055h5.055Zm0-7.939h-5.055v-5.055h5.055Zm0-7.939h-5.055v-5.055h5.055Z" fill="#453d7a"/></g></svg>