<svg xmlns="http://www.w3.org/2000/svg" xmlns:xlink="http://www.w3.org/1999/xlink" width="1202.714" height="558.576" viewBox="0 0 1202.714 558.576"><defs><clipPath id="a"><rect width="1202.714" height="558.577" rx="18.345" transform="translate(62.048 2630.815)" fill="none"/></clipPath><linearGradient id="b" x1="0.062" y1="1.238" x2="0.793" y2="0.007" gradientUnits="objectBoundingBox"><stop offset="0.075" stop-color="#13e4d4"/><stop offset="1" stop-color="#092bbd" stop-opacity="0"/></linearGradient><linearGradient id="c" x1="0.028" y1="0.826" x2="0.96" y2="0.182" gradientUnits="objectBoundingBox"><stop offset="0.1" stop-color="#8979f3"/><stop offset="1" stop-color="#a194f5" stop-opacity="0"/></linearGradient><linearGradient id="d" x1="-32.897" y1="5.928" x2="-34.206" y2="5.928" gradientUnits="objectBoundingBox"><stop offset="0.195" stop-color="#69e9f8"/><stop offset="0.478" stop-color="#675bb6"/><stop offset="1" stop-color="#8979f3"/></linearGradient><linearGradient id="e" x1="-60.391" y1="11.607" x2="-61.701" y2="11.607" xlink:href="#d"/><linearGradient id="f" x1="-141.628" y1="-9.334" x2="-142.938" y2="-9.334" xlink:href="#d"/><linearGradient id="g" x1="-0.025" y1="-0.243" x2="0.806" y2="0.933" xlink:href="#c"/><linearGradient id="h" x1="0.5" y1="0.977" x2="0.5" y2="0.152" gradientUnits="objectBoundingBox"><stop offset="0" stop-color="#fcfdfe"/><stop offset="0.989" stop-color="#fcfdfe" stop-opacity="0"/></linearGradient><radialGradient id="k" cx="0.493" cy="0.409" fy="0.903062105178833" r="0.498" gradientTransform="translate(0)" gradientUnits="objectBoundingBox"><stop offset="0.075" stop-color="#37e2f5"/><stop offset="1" stop-color="#04a4b6"/></radialGradient><radialGradient id="l" cx="0.493" cy="0.409" fy="0.9030648469924927" r="0.498" xlink:href="#k"/><radialGradient id="m" cx="0.493" cy="0.409" fy="0.9030644297599792" r="0.498" gradientTransform="translate(0)" gradientUnits="objectBoundingBox"><stop offset="0.042" stop-color="#f7d99e"/><stop offset="1" stop-color="#f1bf5e"/></radialGradient><radialGradient id="n" cx="0.493" cy="0.409" fy="0.4091491401195526" r="0.498" xlink:href="#m"/><radialGradient id="o" cx="0.493" cy="0.409" fy="0.9030469655990601" r="0.498" xlink:href="#m"/><radialGradient id="p" cx="0.493" cy="0.409" fy="0.4091282784938812" r="0.498" gradientTransform="matrix(1, 0, 0, 1, 0, 0)" xlink:href="#m"/></defs><g transform="translate(-62.048 -2630.814)"><rect width="1202.714" height="558.577" rx="18.755" transform="translate(62.048 2630.815)" fill="#e8f3ff"/><g clip-path="url(#a)"><circle cx="221.319" cy="221.319" r="221.319" transform="translate(868.366 2436.154)" fill="url(#b)"/><circle cx="334.604" cy="334.604" r="334.604" transform="translate(775.983 2904.75)" fill="url(#c)"/><rect width="30.271" height="229.004" transform="matrix(0.912, -0.41, 0.41, 0.912, 745.514, 2673.501)" fill="url(#d)"/><ellipse cx="15.135" cy="5.04" rx="15.135" ry="5.04" transform="matrix(0.912, -0.41, 0.41, 0.912, 743.446, 2668.905)" fill="#453d7a"/><ellipse cx="10.335" cy="2.675" rx="10.335" ry="2.675" transform="matrix(0.912, -0.41, 0.41, 0.912, 748.794, 2669.092)" fill="#131240"/><rect width="16.599" height="113.478" transform="matrix(0.912, -0.41, 0.41, 0.912, 808.425, 2691.516)" fill="url(#e)"/><ellipse cx="8.299" cy="2.764" rx="8.299" ry="2.764" transform="matrix(0.912, -0.41, 0.41, 0.912, 807.291, 2688.996)" fill="#453d7a"/><ellipse cx="5.667" cy="1.467" rx="5.667" ry="1.467" transform="matrix(0.912, -0.41, 0.41, 0.912, 810.223, 2689.098)" fill="#131240"/><rect width="30.271" height="206.95" transform="matrix(-0.912, 0.41, -0.41, -0.912, 1103.58, 3274.408)" fill="url(#f)"/><ellipse cx="15.135" cy="5.04" rx="15.135" ry="5.04" transform="matrix(0.912, -0.41, 0.41, 0.912, 1073.907, 3282.234)" fill="#453d7a"/><ellipse cx="10.335" cy="2.675" rx="10.335" ry="2.675" transform="matrix(0.912, -0.41, 0.41, 0.912, 1079.255, 3282.42)" fill="#131240"/><circle cx="123.429" cy="123.429" r="123.429" transform="translate(696.621 2911.751)" fill="url(#g)"/><rect width="19.928" height="103.899" transform="translate(748.393 3010.395)" fill="url(#h)" style="mix-blend-mode:overlay;isolation:isolate"/><rect width="55.104" height="169.343" transform="translate(781.98 2933.296)" fill="url(#h)" style="mix-blend-mode:overlay;isolation:isolate"/><rect width="55.104" height="169.343" transform="translate(981.322 2720.814)" fill="url(#h)" style="mix-blend-mode:overlay;isolation:isolate"/><circle cx="27.274" cy="27.274" r="27.274" transform="translate(765.22 2891.242)" fill="url(#k)"/><circle cx="15.161" cy="15.161" r="15.161" transform="translate(1143.862 3116.27)" fill="url(#l)"/><circle cx="8.428" cy="8.428" r="8.428" transform="translate(1185.027 3084.712)" fill="url(#m)"/><circle cx="2.966" cy="2.966" r="2.966" transform="translate(1168.159 3045.875)" fill="url(#n)"/><circle cx="6.733" cy="6.733" r="6.733" transform="translate(800.579 2857.017)" fill="url(#o)"/><circle cx="2.99" cy="2.99" r="2.99" transform="translate(912.029 2816.056)" fill="url(#p)"/></g></g></svg>