<svg xmlns="http://www.w3.org/2000/svg" xmlns:xlink="http://www.w3.org/1999/xlink" width="1320" height="506.835" viewBox="0 0 1320 506.835"><defs><clipPath id="a"><path d="M320.787,156.877H1599.213c11.48,0,20.787,8.4,20.787,18.772V644.94c0,10.367-9.307,18.772-20.787,18.772H320.787c-11.48,0-20.787-8.4-20.787-18.772V175.649C300,165.277,309.307,156.877,320.787,156.877Z" fill="none"/></clipPath><linearGradient id="b" x1="1.256" y1="0.13" x2="-0.037" y2="1.374" gradientUnits="objectBoundingBox"><stop offset="0.491" stop-color="#69e9f8"/><stop offset="0.52" stop-color="#05dbf3"/><stop offset="1" stop-color="#04b1d9"/></linearGradient><linearGradient id="c" x1="0.884" y1="-0.369" x2="1.454" y2="1.491" gradientUnits="objectBoundingBox"><stop offset="0" stop-color="#05dbf3"/><stop offset="1" stop-color="#04b1d9"/></linearGradient><linearGradient id="d" x1="-3.13" y1="-0.095" x2="-2.914" y2="1.298" gradientUnits="objectBoundingBox"><stop offset="0.204" stop-color="#69e9f8"/><stop offset="0.558" stop-color="#05dbf3"/><stop offset="1" stop-color="#04b1d9"/></linearGradient><linearGradient id="e" x1="-3.303" y1="-0.356" x2="-2.212" y2="1.15" xlink:href="#c"/><clipPath id="f"><rect width="65.124" height="63.58" transform="translate(983.109 632.527) rotate(180)" fill="none"/></clipPath><clipPath id="g"><rect width="105.666" height="47.193" transform="translate(641.137 204.07) rotate(180)" fill="none"/></clipPath><clipPath id="h"><rect width="74.735" height="71.417" transform="translate(1153.34 663.712) rotate(180)" fill="none"/></clipPath><clipPath id="i"><rect width="108.006" height="86.853" transform="translate(1460.478 278.281) rotate(180)" fill="none"/></clipPath><clipPath id="j"><rect width="112.226" height="112.854" transform="translate(1565.045 394.897) rotate(180)" fill="none"/></clipPath></defs><g transform="translate(-300 -156.877)"><g clip-path="url(#a)"><rect width="9.898" height="9.898" transform="translate(1153.337 627.404) rotate(180)" fill="#f7f8f8"/><rect width="757.565" height="507.383" transform="translate(846.565 156.877)" fill="#b8aff8"/><path d="M716.152,156.877V663.64h427.357l-67.315-125.705a82.522,82.522,0,0,1,11.8-94.6,82.538,82.538,0,0,0,11.789-94.6L997.04,156.877Z" fill="url(#b)"/><path d="M224.13,156.877V663.64H1131.2l-81.512-152.212a82.527,82.527,0,0,1,11.8-94.6,82.538,82.538,0,0,0,11.79-94.6L984.73,156.877Z" fill="url(#c)"/><path d="M1345.41,156.877l96.961,181.062,20.587,38.451,147.085,302.35,29.217,2.087-166.2-523.95Z" fill="url(#d)"/><path d="M1357.65,156.877l91.189,170.28,20.587,38.451,144.1,298.1h97.043V156.877Z" fill="url(#e)"/><circle cx="37.288" cy="37.288" r="37.288" transform="translate(847.149 156.877)" fill="#f1bf5e" opacity="0.72"/><g clip-path="url(#f)"><circle cx="22.642" cy="22.642" r="22.642" transform="translate(933.937 582.211)" fill="#f1bf5e" opacity="0.72"/><circle cx="12.382" cy="12.382" r="12.382" transform="translate(950.387 590.971) rotate(-67.5)" fill="#f1bf5e" opacity="0.72"/></g><g clip-path="url(#g)"><circle cx="35.582" cy="35.582" r="35.582" transform="translate(551.406 141.304) rotate(-12.302)" fill="#f1bf5e" opacity="0.72"/></g><g clip-path="url(#h)"><circle cx="35.582" cy="35.582" r="35.582" transform="translate(1069.105 651.882) rotate(-67.5)" fill="#f1bf5e" opacity="0.72"/></g><g transform="translate(150.261 79)"><g clip-path="url(#i)"><g opacity="0.72"><circle cx="35.582" cy="35.582" r="35.582" transform="matrix(0.987, -0.16, 0.16, 0.987, 1369.634, 205.773)" fill="#f1bf5e"/><circle cx="19.458" cy="19.458" r="19.458" transform="translate(1356.407 207.136) rotate(-13.283)" fill="#f1bf5e"/></g></g></g><path d="M472.711,235.934a34.962,34.962,0,0,0,24.8-10.254l-10.452-10.452a20.288,20.288,0,0,1-28.691-28.691l-10.452-10.452a35.052,35.052,0,0,0,24.8,59.849Z" fill="#8979f3"/><path d="M351.177,622.593a35.068,35.068,0,0,0,24.8-59.866l-10.451,10.452a20.288,20.288,0,0,1-28.691,28.691L326.38,612.321A34.835,34.835,0,0,0,351.177,622.593Z" fill="#8979f3"/><path d="M1529.306,484.762a35.068,35.068,0,0,0,24.8-59.865l-10.452,10.451a20.287,20.287,0,1,1-28.69,28.691l-10.452,10.451A34.835,34.835,0,0,0,1529.306,484.762Z" fill="#8979f3"/><path d="M1495.554,193.906l11.013,9.858a20.288,20.288,0,0,1,30.233,27.061l11.013,9.858a35.068,35.068,0,1,0-52.259-46.777Z" fill="#8979f3"/><g transform="translate(54.644 -1.251)"><path d="M1476.15,570.2l-28.06,28.06,19.356,19.356,28.06-28.06,28.06,28.06,19.356-19.356-28.06-28.06,28.06-28.06-19.356-19.356-28.06,28.06-28.06-28.06-19.356,19.356Z" fill="none" stroke="#f8fcff" stroke-miterlimit="10" stroke-width="3"/></g><path d="M340.462,400.889l-18.9,18.9L334.6,432.83l18.9-18.9,18.9,18.9,13.039-13.039-18.9-18.9,18.9-18.9L372.4,368.947l-18.9,18.9-18.9-18.9L321.56,381.986Z" fill="none" stroke="#f8fcff" stroke-miterlimit="10" stroke-width="3"/><g transform="translate(-714.717 253.825)"><g clip-path="url(#j)"><path d="M1491.209,337.748l-28.06,28.06,19.356,19.356,28.06-28.06,28.06,28.06,19.356-19.356-28.06-28.06,28.06-28.06-19.356-19.356-28.06,28.06-28.06-28.06-19.356,19.356Z" fill="none" stroke="#f8fcff" stroke-miterlimit="10" stroke-width="3"/></g></g><path d="M745.169,187.429,738.1,194.5l4.875,4.875,7.067-7.067,7.067,7.067,4.875-4.875-7.067-7.067,7.067-7.067-4.875-4.875-7.067,7.067-7.067-7.067-4.875,4.875Z" fill="#f8fcff"/><g transform="translate(-845.77 27.535)"><path d="M1388.308,208.4l-7.067,7.067,4.875,4.875,7.067-7.067,7.067,7.067,4.875-4.875-7.067-7.067,7.067-7.067-4.875-4.875-7.067,7.067-7.067-7.067-4.875,4.875Z" fill="#f8fcff"/></g><path d="M1130.391,184.478l-7.067,7.067,4.875,4.875,7.067-7.067,7.067,7.067,4.875-4.875-7.067-7.067,7.067-7.067-4.875-4.875-7.067,7.067-7.067-7.067-4.875,4.875Z" fill="#f8fcff"/><path d="M365.864,223.429,358.8,230.5l4.875,4.875,7.067-7.067,7.067,7.067,4.875-4.875-7.067-7.067,7.067-7.067-4.875-4.875-7.067,7.067-7.067-7.067-4.875,4.875Z" fill="#f8fcff"/><circle cx="2.395" cy="2.395" r="2.395" transform="translate(1468.074 569.327)" fill="#f8fcff"/><circle cx="2.395" cy="2.395" r="2.395" transform="translate(1444.526 569.327)" fill="#f8fcff"/><circle cx="2.395" cy="2.395" r="2.395" transform="translate(1420.977 569.327)" fill="#f8fcff"/><circle cx="2.395" cy="2.395" r="2.395" transform="translate(1397.429 569.327)" fill="#f8fcff"/><circle cx="2.395" cy="2.395" r="2.395" transform="translate(1468.074 591.944)" fill="#f8fcff"/><circle cx="2.395" cy="2.395" r="2.395" transform="translate(1444.526 591.944)" fill="#f8fcff"/><circle cx="2.395" cy="2.395" r="2.395" transform="translate(1420.977 591.944)" fill="#f8fcff"/><circle cx="2.395" cy="2.395" r="2.395" transform="translate(1397.429 591.944)" fill="#f8fcff"/><circle cx="2.395" cy="2.395" r="2.395" transform="translate(1468.074 614.561)" fill="#f8fcff"/><circle cx="2.395" cy="2.395" r="2.395" transform="translate(1444.526 614.561)" fill="#f8fcff"/><circle cx="2.395" cy="2.395" r="2.395" transform="translate(1420.977 614.561)" fill="#f8fcff"/><circle cx="2.395" cy="2.395" r="2.395" transform="translate(1397.429 614.561)" fill="#f8fcff"/><circle cx="2.395" cy="2.395" r="2.395" transform="translate(1468.074 637.178)" fill="#f8fcff"/><circle cx="2.395" cy="2.395" r="2.395" transform="translate(1444.526 637.178)" fill="#f8fcff"/><circle cx="2.395" cy="2.395" r="2.395" transform="translate(1420.977 637.178)" fill="#f8fcff"/><circle cx="2.395" cy="2.395" r="2.395" transform="translate(1397.429 637.178)" fill="#f8fcff"/><circle cx="2.395" cy="2.395" r="2.395" transform="translate(1052.561 189.929)" fill="#f8fcff"/><circle cx="2.395" cy="2.395" r="2.395" transform="translate(1029.013 189.929)" fill="#f8fcff"/><circle cx="2.395" cy="2.395" r="2.395" transform="translate(1005.465 189.929)" fill="#f8fcff"/><circle cx="2.395" cy="2.395" r="2.395" transform="translate(981.916 189.929)" fill="#f8fcff"/><circle cx="2.395" cy="2.395" r="2.395" transform="translate(1052.561 212.546)" fill="#f8fcff"/><circle cx="2.395" cy="2.395" r="2.395" transform="translate(1029.013 212.546)" fill="#f8fcff"/><circle cx="2.395" cy="2.395" r="2.395" transform="translate(1005.465 212.546)" fill="#f8fcff"/><circle cx="2.395" cy="2.395" r="2.395" transform="translate(981.916 212.546)" fill="#f8fcff"/><circle cx="2.395" cy="2.395" r="2.395" transform="translate(1052.561 235.163)" fill="#f8fcff"/><circle cx="2.395" cy="2.395" r="2.395" transform="translate(1029.013 235.163)" fill="#f8fcff"/><circle cx="2.395" cy="2.395" r="2.395" transform="translate(1005.465 235.163)" fill="#f8fcff"/><circle cx="2.395" cy="2.395" r="2.395" transform="translate(981.916 235.163)" fill="#f8fcff"/><circle cx="2.395" cy="2.395" r="2.395" transform="translate(1052.561 257.78)" fill="#f8fcff"/><circle cx="2.395" cy="2.395" r="2.395" transform="translate(1029.013 257.78)" fill="#f8fcff"/><circle cx="2.395" cy="2.395" r="2.395" transform="translate(1005.465 257.78)" fill="#f8fcff"/><circle cx="2.395" cy="2.395" r="2.395" transform="translate(981.916 257.78)" fill="#f8fcff"/><circle cx="2.395" cy="2.395" r="2.395" transform="translate(714.919 169.707)" fill="#f8fcff"/><circle cx="2.395" cy="2.395" r="2.395" transform="translate(691.371 169.707)" fill="#f8fcff"/><circle cx="2.395" cy="2.395" r="2.395" transform="translate(667.823 169.707)" fill="#f8fcff"/><circle cx="2.395" cy="2.395" r="2.395" transform="translate(644.274 169.707)" fill="#f8fcff"/><circle cx="2.395" cy="2.395" r="2.395" transform="translate(714.919 192.324)" fill="#f8fcff"/><circle cx="2.395" cy="2.395" r="2.395" transform="translate(691.371 192.324)" fill="#f8fcff"/><circle cx="2.395" cy="2.395" r="2.395" transform="translate(667.823 192.324)" fill="#f8fcff"/><circle cx="2.395" cy="2.395" r="2.395" transform="translate(644.274 192.324)" fill="#f8fcff"/><circle cx="2.395" cy="2.395" r="2.395" transform="translate(714.919 214.941)" fill="#f8fcff"/><circle cx="2.395" cy="2.395" r="2.395" transform="translate(691.371 214.941)" fill="#f8fcff"/><circle cx="2.395" cy="2.395" r="2.395" transform="translate(667.823 214.941)" fill="#f8fcff"/><circle cx="2.395" cy="2.395" r="2.395" transform="translate(644.274 214.941)" fill="#f8fcff"/><circle cx="2.395" cy="2.395" r="2.395" transform="translate(714.919 237.558)" fill="#f8fcff"/><circle cx="2.395" cy="2.395" r="2.395" transform="translate(691.371 237.558)" fill="#f8fcff"/><circle cx="2.395" cy="2.395" r="2.395" transform="translate(667.823 237.558)" fill="#f8fcff"/><circle cx="2.395" cy="2.395" r="2.395" transform="translate(644.274 237.558)" fill="#f8fcff"/></g></g></svg>