<svg xmlns="http://www.w3.org/2000/svg" width="172.239" height="175.543" viewBox="0 0 172.239 175.543"><g transform="translate(-1022.572 -3326.518)"><circle cx="75" cy="75" r="75" transform="translate(1033.691 3339.289)" fill="#fff"/><path d="M1084.432,3410.249a28,28,0,0,0-2.993.161c-11.569,1.243-22.614,12.243-23.9,23.815a27.062,27.062,0,0,0,41.136,26.1,19.545,19.545,0,0,1,8.731-3.067q1.126-.1,2.284-.1,1.1,0,2.18.077a19.58,19.58,0,0,1,8.862,3.1,27.062,27.062,0,0,0,41.1-26.117c-1.283-11.564-12.33-22.562-23.9-23.805a27.785,27.785,0,0,0-2.984-.161Z" fill="#b8aff8"/><circle cx="5.413" cy="5.413" r="5.413" transform="translate(1116.901 3431.893)" fill="#68d0e8"/><path d="M1156.758,3421.921c-21.716,24.337-70.623,33.394-89.724,36.084a26.963,26.963,0,0,0,31.637,2.311,19.533,19.533,0,0,1,8.731-3.067c.754-.06,1.519-.09,2.289-.09q1.1,0,2.18.077a19.58,19.58,0,0,1,8.862,3.1,27.062,27.062,0,0,0,41.1-26.117A25.662,25.662,0,0,0,1156.758,3421.921Z" fill="#a194f5"/><path d="M1080.824,3424.683h7.217v9.021h9.021v7.217h-9.021v9.021h-7.217v-9.021H1071.8V3433.7h9.021Z" fill="#8979f3"/><circle cx="5.413" cy="5.413" r="5.413" transform="translate(1129.53 3421.067)" fill="#f7d99e"/><circle cx="5.413" cy="5.413" r="5.413" transform="translate(1129.53 3442.718)" fill="#f7d99e"/><circle cx="5.413" cy="5.413" r="5.413" transform="translate(1142.16 3431.893)" fill="#68d0e8"/><path d="M1106.083,3410.249v-7.217h7.217v7.217" fill="#a194f5"/><path d="M1125.124,3432.705a5.345,5.345,0,0,1,.8,2.8,5.412,5.412,0,0,1-5.413,5.413,5.354,5.354,0,0,1-2.8-.8,5.4,5.4,0,1,0,7.411-7.411Z" fill="#04b1d9"/><path d="M1137.754,3421.879a5.357,5.357,0,0,1,.8,2.8,5.411,5.411,0,0,1-5.413,5.412,5.35,5.35,0,0,1-2.8-.8,5.4,5.4,0,1,0,7.412-7.412Z" fill="#b58f47"/><path d="M1150.383,3432.705a5.336,5.336,0,0,1,.8,2.8,5.412,5.412,0,0,1-5.413,5.413,5.353,5.353,0,0,1-2.8-.8,5.4,5.4,0,1,0,7.411-7.411Z" fill="#04b1d9"/><path d="M1137.754,3443.53a5.355,5.355,0,0,1,.8,2.8,5.412,5.412,0,0,1-5.413,5.412,5.35,5.35,0,0,1-2.8-.8,5.4,5.4,0,1,0,7.412-7.412Z" fill="#b58f47"/><path d="M1071.8,3439.158v1.763h9.021v9.021h7.217v-9.021h9.021V3433.7h-3.012C1086.924,3438.673,1076.057,3439.171,1071.8,3439.158Z" fill="#675bb6"/><path d="M1106.083,3409.757v.492h7.217v-5.927A13.653,13.653,0,0,1,1106.083,3409.757Z" fill="#8979f3"/><path d="M1097.062,3431.9h-7.217v-7.217a1.8,1.8,0,0,0-1.8-1.8h-7.217a1.8,1.8,0,0,0-1.8,1.8v7.217H1071.8a1.805,1.805,0,0,0-1.8,1.8v7.217a1.805,1.805,0,0,0,1.8,1.8h7.216v7.217a1.805,1.805,0,0,0,1.8,1.8h7.217a1.8,1.8,0,0,0,1.8-1.8v-7.217h7.217a1.8,1.8,0,0,0,1.8-1.8V3433.7A1.8,1.8,0,0,0,1097.062,3431.9Zm-1.8,7.217h-7.217a1.8,1.8,0,0,0-1.8,1.8v7.217h-3.609v-7.217a1.8,1.8,0,0,0-1.8-1.8h-7.217v-3.609h7.217a1.8,1.8,0,0,0,1.8-1.8v-7.217h3.608v7.217a1.805,1.805,0,0,0,1.805,1.8h7.216v3.609Z" fill="#453d7a"/><path d="M1134.95,3433.7a7.217,7.217,0,1,0-7.217-7.217A7.217,7.217,0,0,0,1134.95,3433.7Zm0-10.825a3.608,3.608,0,1,1-3.608,3.608A3.607,3.607,0,0,1,1134.95,3422.879Z" fill="#453d7a"/><path d="M1134.95,3440.921a7.217,7.217,0,1,0,7.217,7.217A7.218,7.218,0,0,0,1134.95,3440.921Zm0,10.825a3.609,3.609,0,1,1,3.609-3.608A3.608,3.608,0,0,1,1134.95,3451.746Z" fill="#453d7a"/><path d="M1122.321,3430.095a7.217,7.217,0,1,0,7.217,7.217A7.217,7.217,0,0,0,1122.321,3430.095Zm0,10.826a3.608,3.608,0,1,1,3.608-3.608A3.608,3.608,0,0,1,1122.321,3440.921Z" fill="#453d7a"/><path d="M1147.58,3430.095a7.217,7.217,0,1,0,7.217,7.217A7.217,7.217,0,0,0,1147.58,3430.095Zm0,10.826a3.608,3.608,0,1,1,3.608-3.608A3.608,3.608,0,0,1,1147.58,3440.921Z" fill="#453d7a"/><path d="M1138.133,3408.625a29.97,29.97,0,0,0-3.183-.18H1115.1v-7.217h-3.609v-3.608a7.217,7.217,0,0,0-7.216-7.217h-9.021a3.609,3.609,0,1,1,0-7.217h28.867a7.217,7.217,0,1,0,0-14.433H1115.1a3.607,3.607,0,0,1-3.608-3.609v-7.217h-3.609v7.217a7.218,7.218,0,0,0,7.217,7.217h9.021a3.608,3.608,0,1,1,0,7.216h-28.867a7.217,7.217,0,0,0,0,14.434h9.021a3.607,3.607,0,0,1,3.608,3.608v3.609h-3.608v7.217h-19.847a29.24,29.24,0,0,0-3.186.18c-12.449,1.336-24.119,12.967-25.5,25.4a28.868,28.868,0,0,0,43.879,27.825,17.679,17.679,0,0,1,7.918-2.8,27.818,27.818,0,0,1,4.2-.014,17.8,17.8,0,0,1,8.043,2.829,28.867,28.867,0,0,0,43.855-27.85C1162.254,3421.583,1150.577,3409.951,1138.133,3408.625Zm-30.246-3.789h3.608v3.609h-3.608Zm45.89,49.317a25.242,25.242,0,0,1-32.093,4.646,21.268,21.268,0,0,0-9.687-3.361q-1.143-.084-2.306-.083c-.821,0-1.624.034-2.432.1a21.235,21.235,0,0,0-9.541,3.331,25.257,25.257,0,0,1-38.384-24.357c1.187-10.685,11.6-21.063,22.3-22.212a25.568,25.568,0,0,1,2.8-.16h50.518a26.44,26.44,0,0,1,2.8.149c10.694,1.15,21.11,11.527,22.3,22.212A25.072,25.072,0,0,1,1153.777,3454.153Z" fill="#453d7a"/><rect width="172.239" height="175.544" transform="translate(1022.572 3326.517)" fill="none"/></g></svg>