<svg xmlns="http://www.w3.org/2000/svg" width="172.239" height="175.543" viewBox="0 0 172.239 175.543"><g transform="translate(-233.153 -5579.881)"><circle cx="75" cy="75" r="75" transform="translate(244.273 5592.652)" fill="#fff"/><rect width="172.239" height="175.544" transform="translate(233.153 5579.88)" fill="none"/><path d="M366.956,5654.611H333.922A2.336,2.336,0,0,1,331.7,5653l-10.208-31.417a2.335,2.335,0,0,0-4.441,0L306.844,5653a2.335,2.335,0,0,1-2.22,1.614H271.59a2.334,2.334,0,0,0-1.372,4.223l26.725,19.417a2.334,2.334,0,0,1,.848,2.61l-10.208,31.417a2.334,2.334,0,0,0,3.592,2.61l26.725-19.417a2.336,2.336,0,0,1,2.745,0l26.725,19.417a2.335,2.335,0,0,0,3.593-2.61l-10.208-31.417a2.332,2.332,0,0,1,.848-2.61l26.725-19.417A2.335,2.335,0,0,0,366.956,5654.611Z" fill="#f1bf5e"/><path d="M348.742,5718.232a5.224,5.224,0,0,1-3.074-1l-26.395-19.177-26.4,19.177a5.23,5.23,0,0,1-8.048-5.846l10.083-31.03-26.4-19.178a5.23,5.23,0,0,1,3.074-9.46h32.627l10.082-31.03a5.229,5.229,0,0,1,9.947,0l10.083,31.031h32.627a5.23,5.23,0,0,1,3.074,9.46l-26.4,19.178,10.082,31.03a5.235,5.235,0,0,1-4.974,6.848Zm-75.427-60.726,25.33,18.4a5.215,5.215,0,0,1,1.9,5.847l-9.675,29.777,25.33-18.4a5.218,5.218,0,0,1,6.147,0l25.331,18.4L338,5681.755a5.214,5.214,0,0,1,1.9-5.847l25.329-18.4H333.922a5.216,5.216,0,0,1-4.974-3.615l-9.676-29.776-9.675,29.777a5.215,5.215,0,0,1-4.973,3.614Zm93.641,0h0Z" fill="#453d7a"/></g></svg>