<svg xmlns="http://www.w3.org/2000/svg" width="172.239" height="175.543" viewBox="0 0 172.239 175.543"><g transform="translate(-798.224 -3326.518)"><circle cx="75" cy="75" r="75" transform="translate(809.344 3339.289)" fill="#fff"/><rect width="172.239" height="175.544" transform="translate(798.224 3326.517)" fill="none"/><path d="M839.564,3366.281h48.825v51.876H839.564Z" fill="#b8aff8"/><path d="M882.286,3405.951h48.825v51.877H882.286Z" fill="#b8aff8"/><path d="M876.183,3380.532a11.267,11.267,0,0,1-4.455,8.971l-.138.107h-.015a2.058,2.058,0,0,0,.031-.443v-5a1.549,1.549,0,0,0-1.038-1.45,15.76,15.76,0,0,1-6.179-3.814l-.412-.412-.412.412a15.763,15.763,0,0,1-6.18,3.814,1.548,1.548,0,0,0-1.037,1.45v5a2.128,2.128,0,0,0,.03.443h-.015l-.137-.107a11.272,11.272,0,0,1-4.456-8.971,8.137,8.137,0,0,1,8.148-8.148h8.117a8.135,8.135,0,0,1,8.148,8.148Z" fill="#b27946"/><path d="M879.235,3408.27v9.887H848.719v-9.887a7.65,7.65,0,0,1,6.164-7.522l4.516-.9.168.32a4.925,4.925,0,0,0,8.819,0l.168-.32,4.516.9a7.649,7.649,0,0,1,6.165,7.522Z" fill="#68d0e8"/><path d="M898.948,3429.173a11.265,11.265,0,0,1-4.456-8.971,8.138,8.138,0,0,1,8.148-8.148h13.213a3.061,3.061,0,0,1,3.052,3.052,9.066,9.066,0,0,1-2.686,6.469,9.334,9.334,0,0,1-1.892,1.465,9.075,9.075,0,0,1-4.577,1.22h-.4a4.68,4.68,0,0,1-2.136-.5,3.7,3.7,0,0,1-2.044-3.311.531.531,0,0,1,.015-.153h-.015l-3.22,1.3a4.556,4.556,0,0,0-2.883,4.242v3.006a2.122,2.122,0,0,0,.03.442h-.015Z" fill="#b27946"/><path d="M921.956,3447.941v9.887h-35.6a8.139,8.139,0,0,0,8.132-8.133v-7.873a7.713,7.713,0,0,1,3.113-1.4l4.516-.9.168.321a4.925,4.925,0,0,0,8.819,0l.168-.321,4.516.9a7.649,7.649,0,0,1,6.164,7.523Z" fill="#f1bf5e"/><path d="M860.193,3395.789l3.784,1.007a7.578,7.578,0,0,0,3.784-1.007l.793,4.059-.168.32a4.925,4.925,0,0,1-8.819,0l-.168-.32Z" fill="#f0d0b4"/><path d="M871.606,3384.163v5a2.058,2.058,0,0,1-.031.443,7.608,7.608,0,0,1-7.6,7.186l-3.784-1.007a7.469,7.469,0,0,1-3.815-6.179,2.128,2.128,0,0,1-.03-.443v-5a1.548,1.548,0,0,1,1.037-1.45,15.763,15.763,0,0,0,6.18-3.814l.412-.412.412.412a15.76,15.76,0,0,0,6.179,3.814A1.549,1.549,0,0,1,871.606,3384.163Z" fill="#f0d0b4"/><path d="M902.915,3435.46a7.611,7.611,0,0,0,7.567,0l.794,4.058-.168.321a4.925,4.925,0,0,1-8.819,0l-.168-.321Z" fill="#f0d0b4"/><path d="M905.173,3420.446a3.7,3.7,0,0,0,2.044,3.311,4.68,4.68,0,0,0,2.136.5h.4a9.075,9.075,0,0,0,4.577-1.22v5.8a7.662,7.662,0,0,1-2.227,5.4,7.5,7.5,0,0,1-1.618,1.221,7.61,7.61,0,0,1-11.382-6.18,2.122,2.122,0,0,1-.03-.442v-3.006a4.556,4.556,0,0,1,2.883-4.242l3.22-1.3h.015A.531.531,0,0,0,905.173,3420.446Z" fill="#f0d0b4"/><path d="M921.956,3369.332H885.338a9.162,9.162,0,0,0-9.155,9.155v13.229a8.126,8.126,0,0,0,8.132,8.132,7.979,7.979,0,0,0,4.059-1.1,8.063,8.063,0,0,0,2.456-2.151,7.092,7.092,0,0,1,5.692-2.853h14.25a7.092,7.092,0,0,1,5.692,2.853,8.14,8.14,0,0,0,14.647-4.882v-13.229A9.162,9.162,0,0,0,921.956,3369.332Z" fill="#aab2bd"/><path d="M885.338,3427.312H848.719a9.162,9.162,0,0,0-9.155,9.155V3449.7a8.127,8.127,0,0,0,8.133,8.133,7.976,7.976,0,0,0,4.058-1.1,8.078,8.078,0,0,0,2.457-2.151,7.087,7.087,0,0,1,5.691-2.854h14.251a7.088,7.088,0,0,1,5.691,2.854,8.14,8.14,0,0,0,14.647-4.883v-13.228A9.161,9.161,0,0,0,885.338,3427.312Z" fill="#aab2bd"/><path d="M894.492,3380.013v3.051a1.529,1.529,0,0,1-1.525,1.526h-1.526v1.526a1.531,1.531,0,0,1-1.526,1.526h-3.052a1.53,1.53,0,0,1-1.525-1.526v-1.526h-1.526a1.53,1.53,0,0,1-1.526-1.526v-3.051a1.531,1.531,0,0,1,1.526-1.526h1.526v-1.526a1.53,1.53,0,0,1,1.525-1.526h3.052a1.531,1.531,0,0,1,1.526,1.526v1.526h1.526A1.53,1.53,0,0,1,894.492,3380.013Z" fill="#f7d99e"/><path d="M900.595,3375.435h6.1v6.1h-6.1Z" fill="#69e9f8"/><path d="M900.595,3369.332h6.1v6.1h-6.1Z" fill="#69e9f8"/><path d="M863.977,3433.415h6.1v6.1h-6.1Z" fill="#fcd770"/><path d="M863.977,3427.312h6.1v6.1h-6.1Z" fill="#fcd770"/><path d="M857.874,3437.992v3.052a1.531,1.531,0,0,1-1.526,1.526h-1.526v1.526a1.53,1.53,0,0,1-1.526,1.525h-3.051a1.53,1.53,0,0,1-1.526-1.525v-1.526h-1.526a1.531,1.531,0,0,1-1.526-1.526v-3.052a1.53,1.53,0,0,1,1.526-1.525h1.526v-1.526a1.531,1.531,0,0,1,1.526-1.526H853.3a1.531,1.531,0,0,1,1.526,1.526v1.526h1.526A1.53,1.53,0,0,1,857.874,3437.992Z" fill="#05dbf3"/><path d="M856.348,3434.941a3.055,3.055,0,0,0-3.052-3.052h-3.051a431439.157,431439.157,0,0,0-6.1,6.1v3.052a13076.07,13076.07,0,0,0,6.1,6.1H853.3a13076.07,13076.07,0,0,0,6.1-6.1v-3.052A3.054,3.054,0,0,0,856.348,3434.941Zm0,6.1H853.3v3.052h-3.051v-3.052h-3.052v-3.052h3.052v-3.051H853.3v3.051l3.052,0Z" fill="#453d7a"/><path d="M862.451,3444.1H865.5v3.051h-3.051Z" fill="#453d7a"/><path d="M868.554,3444.1h3.052v3.051h-3.052Z" fill="#453d7a"/><path d="M877.709,3444.1h3.051v3.051h-3.051Z" fill="#453d7a"/><path d="M883.812,3444.1h3.051v3.051h-3.051Z" fill="#453d7a"/><circle cx="1.526" cy="1.526" r="1.526" transform="translate(880.76 3431.889)" fill="#453d7a"/><circle cx="1.526" cy="1.526" r="1.526" transform="translate(880.76 3437.992)" fill="#453d7a"/><circle cx="1.526" cy="1.526" r="1.526" transform="translate(877.709 3434.941)" fill="#453d7a"/><circle cx="1.526" cy="1.526" r="1.526" transform="translate(883.812 3434.941)" fill="#453d7a"/><path d="M892.967,3376.961a3.055,3.055,0,0,0-3.052-3.051h-3.052a431439.157,431439.157,0,0,1-6.1,6.1v3.051a431439.167,431439.167,0,0,1,6.1,6.1h3.052a13484.834,13484.834,0,0,0,6.1-6.1v-3.051A3.055,3.055,0,0,0,892.967,3376.961Zm0,6.1h-3.052v3.052h-3.052v-3.052h-3.051v-3.051h3.051v-3.052h3.052v3.052l3.052,0Z" fill="#453d7a"/><path d="M892.05,3397.509a5.624,5.624,0,0,1,4.476-2.238h14.242a5.627,5.627,0,0,1,4.476,2.236,9.662,9.662,0,0,0,17.393-5.8v-13.224a10.694,10.694,0,0,0-10.681-10.68H889.915v-3.052H838.038v54.928H880.76v6.1H848.719a10.7,10.7,0,0,0-10.681,10.681v13.224a9.663,9.663,0,0,0,17.393,5.8,5.623,5.623,0,0,1,4.476-2.239h14.242a5.629,5.629,0,0,1,4.477,2.237,9.7,9.7,0,0,0,7.729,3.866h46.282v-54.928H889.915v-4.858A9.637,9.637,0,0,0,892.05,3397.509Zm37.535-19.022v13.224a6.611,6.611,0,0,1-11.9,3.965,8.69,8.69,0,0,0-6.916-3.457H896.526a8.686,8.686,0,0,0-6.916,3.459,6.612,6.612,0,0,1-11.9-3.967v-13.224a7.637,7.637,0,0,1,7.629-7.629H899.07v12.206h9.154v-12.206h13.732A7.637,7.637,0,0,1,929.585,3378.487Zm-58.539,2.783a14.326,14.326,0,0,1-5.573-3.445l-1.5-1.495-1.5,1.495a14.317,14.317,0,0,1-5.57,3.444,3.047,3.047,0,0,0-2.089,2.9v1.581a9.788,9.788,0,0,1-1.526-5.218,6.618,6.618,0,0,1,6.618-6.617h8.126a6.616,6.616,0,0,1,6.617,6.619,9.781,9.781,0,0,1-1.526,5.216v-1.581a3.046,3.046,0,0,0-2.085-2.894Zm6.663,35.362H850.245v-8.359a6.146,6.146,0,0,1,4.943-6.027l3.427-.685a6.452,6.452,0,0,0,10.725,0l3.427.685a6.148,6.148,0,0,1,4.942,6.027ZM866.952,3399.6a3.382,3.382,0,0,1-5.951,0l.324-1.672a9.093,9.093,0,0,0,5.3,0Zm-2.975-4.328a6.11,6.11,0,0,1-6.1-6.1v-5a17.376,17.376,0,0,0,6.1-3.553,17.388,17.388,0,0,0,6.1,3.553v5A6.11,6.11,0,0,1,863.977,3395.271Zm38.144-18.31h3.052v3.052h-3.052Zm3.052-3.051h-3.052v-3.052h3.052Zm-64.083-6.1h44.248a10.7,10.7,0,0,0-9.865,6.592c-.115-.14-.206-.3-.329-.43a9.7,9.7,0,0,0-7.1-3.111h-8.126a9.671,9.671,0,0,0-9.669,9.669,12.859,12.859,0,0,0,4.669,9.86,9.15,9.15,0,0,0,3.584,6.1l-.4,2.069-3.507.7a9.2,9.2,0,0,0-7.4,9.019v8.359h-6.1Zm24.412,67.134h3.052v3.051H865.5Zm3.052-3.052H865.5v-3.051h3.052Zm12.511,21.767a8.69,8.69,0,0,0-6.916-3.457H859.907a8.686,8.686,0,0,0-6.916,3.459,6.612,6.612,0,0,1-11.9-3.967v-13.224a7.637,7.637,0,0,1,7.629-7.629h13.732v12.206h9.155v-12.206h13.732a7.638,7.638,0,0,1,7.629,7.629v13.224a6.612,6.612,0,0,1-11.9,3.965Zm14.953-3.965v-7.011a6.149,6.149,0,0,1,1.891-.763l3.426-.685a6.454,6.454,0,0,0,10.727,0l3.427.685a6.146,6.146,0,0,1,4.942,6.027v8.358H893.383a9.611,9.611,0,0,0,2.635-6.611Zm1.553-24.227a9.8,9.8,0,0,1-1.553-5.267,6.617,6.617,0,0,1,6.617-6.617h13.218a1.527,1.527,0,0,1,1.526,1.526,7.638,7.638,0,0,1-7.629,7.629h-.4a3.235,3.235,0,0,1-1.445-.342,2.177,2.177,0,0,1,0-3.894l1-.5-1.365-2.73-1,.5a5.188,5.188,0,0,0-2.731,3.429l-2.426.97a6.059,6.059,0,0,0-3.809,5.3Zm3.024.37a3.033,3.033,0,0,1,1.918-2.832l1.517-.606a5.186,5.186,0,0,0,2.507,2.726,6.293,6.293,0,0,0,2.81.664h.4a10.612,10.612,0,0,0,3.052-.45v3.5a6.1,6.1,0,1,1-12.207,0Zm6.1,12.158a9.1,9.1,0,0,0,2.65-.4l.323,1.673a3.381,3.381,0,0,1-5.949,0l.324-1.673A9.111,9.111,0,0,0,906.7,3437.992Zm22.886-30.515V3456.3h-6.1v-8.358a9.2,9.2,0,0,0-7.4-9.019l-3.508-.7-.4-2.069a9.141,9.141,0,0,0,3.675-7.318v-4.978a10.673,10.673,0,0,0,4.578-8.752,4.584,4.584,0,0,0-4.578-4.578H902.635a9.669,9.669,0,0,0-9.668,9.669,12.858,12.858,0,0,0,4.668,9.86,9.155,9.155,0,0,0,3.584,6.1l-.4,2.069-3.506.7a8.934,8.934,0,0,0-1.294.372v-2.83a10.694,10.694,0,0,0-10.68-10.681h-1.526v-6.1h6.1v-12.206Zm-42.722,9.155h-6.1v-8.359a9.2,9.2,0,0,0-7.4-9.019l-3.508-.7-.4-2.069a9.146,9.146,0,0,0,3.584-6.1,12.689,12.689,0,0,0,1.617-1.586v2.91a9.674,9.674,0,0,0,9.663,9.663,9.562,9.562,0,0,0,2.543-.359Z" fill="#453d7a"/><path d="M899.07,3386.116h3.051v3.051H899.07Z" fill="#453d7a"/><path d="M905.173,3386.116h3.051v3.051h-3.051Z" fill="#453d7a"/><path d="M914.327,3386.116h3.052v3.051h-3.052Z" fill="#453d7a"/><path d="M920.431,3386.116h3.051v3.051h-3.051Z" fill="#453d7a"/><circle cx="1.526" cy="1.526" r="1.526" transform="translate(917.379 3373.91)" fill="#453d7a"/><circle cx="1.526" cy="1.526" r="1.526" transform="translate(917.379 3380.013)" fill="#453d7a"/><circle cx="1.526" cy="1.526" r="1.526" transform="translate(914.327 3376.961)" fill="#453d7a"/><circle cx="1.526" cy="1.526" r="1.526" transform="translate(920.431 3376.961)" fill="#453d7a"/></g></svg>