<svg xmlns="http://www.w3.org/2000/svg" width="172.239" height="175.543" viewBox="0 0 172.239 175.543"><g transform="translate(-602.826 -5579.881)"><circle cx="75" cy="75" r="75" transform="translate(613.945 5592.652)" fill="#fff"/><rect width="172.239" height="175.544" transform="translate(602.826 5579.88)" fill="none"/><path d="M652.321,5665.855a10.824,10.824,0,0,0-10.824,10.824V5628.9a10.824,10.824,0,0,1,10.824-10.824h12.642v47.782Z" fill="#a194f5"/><path d="M709.3,5709.151V5687.5H725.57a10.824,10.824,0,0,1,10.823,10.824h0a10.823,10.823,0,0,1-10.823,10.823Z" fill="#a194f5"/><path d="M736.393,5650.544a10.823,10.823,0,0,0-10.824-10.823H664.963v26.134H652.321a10.824,10.824,0,1,0,0,21.648h73.248a10.824,10.824,0,0,1,10.824,10.824Z" fill="#b8aff8"/><path d="M715.414,5677.2l-2.678-2.678,2.678-2.678-3.375-3.375-2.678,2.678-2.678-2.678-3.375,3.375,2.678,2.678-2.678,2.678,3.375,3.375,2.678-2.678,2.678,2.678Z" fill="#f7d99e"/><circle cx="4.651" cy="4.651" r="4.651" transform="translate(669.857 5647.579)" fill="#05dbf3"/><path d="M647.225,5628.9a10.824,10.824,0,0,1,10.824-10.824h-5.728A10.824,10.824,0,0,0,641.5,5628.9v47.782a10.823,10.823,0,0,1,5.728-9.55Z" fill="#675bb6"/><rect width="5.728" height="21.647" transform="translate(709.299 5687.502)" fill="#675bb6"/><path d="M647.225,5676.679a10.824,10.824,0,0,1,10.824-10.824h-5.728a10.824,10.824,0,1,0,0,21.648h5.728A10.824,10.824,0,0,1,647.225,5676.679Z" fill="#a194f5"/><rect width="5.728" height="26.134" transform="translate(664.963 5639.72)" fill="#a194f5"/><path d="M731.3,5687.5h-5.729a10.824,10.824,0,0,1,10.824,10.824v-9.55A10.772,10.772,0,0,0,731.3,5687.5Z" fill="#a194f5"/><path d="M709.8,5674.523l-2.678-2.678,1.466-1.466-1.909-1.909-3.375,3.375,2.678,2.678-2.678,2.678,3.375,3.375,1.909-1.909-1.466-1.466Z" fill="#f1bf5e"/><path d="M719.233,5671.846l-3.375-3.375-1.909,1.909,1.466,1.466-2.678,2.678,2.678,2.678-1.466,1.466,1.909,1.909,3.375-3.375-2.678-2.678Z" fill="#f7d99e"/><path d="M673.676,5652.231a4.65,4.65,0,0,1,2.741-4.241,4.651,4.651,0,1,0,0,8.481A4.648,4.648,0,0,1,673.676,5652.231Z" fill="#04a4b6"/><path d="M678.327,5647.58a4.629,4.629,0,0,0-1.91.41,4.65,4.65,0,0,1,0,8.481,4.651,4.651,0,1,0,1.91-8.891Z" fill="#f7d99e"/><rect width="2.864" height="2.864" transform="translate(712.717 5690.675)" fill="#1d1d1f"/><rect width="2.864" height="2.864" transform="translate(712.717 5700.222)" fill="#1d1d1f"/><rect width="2.864" height="2.864" transform="translate(712.717 5695.449)" fill="#1d1d1f"/><rect width="2.864" height="15.17" transform="translate(657.44 5647.319)" fill="#fff"/><rect width="2.864" height="2.864" transform="translate(657.44 5642.545)" fill="#fff"/><rect width="2.864" height="2.864" transform="translate(657.44 5637.772)" fill="#fff"/><rect width="2.864" height="13.696" transform="translate(729.712 5669.392)" fill="#fff"/><rect width="2.864" height="2.864" transform="translate(729.712 5659.845)" fill="#fff"/><rect width="2.864" height="2.864" transform="translate(729.712 5664.618)" fill="#fff"/><path d="M725.569,5638.289H668.782v2.864h49.663v7.46h2.864v-7.46h2.828v6.229H727v-6.12a9.406,9.406,0,0,1,7.96,9.282v39.917a12.235,12.235,0,0,0-9.392-4.39H692.35v-3.747h-2.864v3.747H660.527V5675h-2.864v11.067h-4.9V5680.6H649.9v5.147a9.391,9.391,0,0,1,2.423-18.465H666.4v-50.646H652.321a12.27,12.27,0,0,0-12.256,12.256v47.794h0a12.271,12.271,0,0,0,12.256,12.244H725.57A9.392,9.392,0,0,1,727,5707.609v-11.493h-2.864v11.6h-1.874v-4.1H719.4v4.1h-8.669v-16.4h-2.864v19.261h17.7a12.27,12.27,0,0,0,12.256-12.256v-47.783A12.269,12.269,0,0,0,725.569,5638.289Zm-82.64-9.392a9.4,9.4,0,0,1,9.392-9.392h11.21v4.551h-7.045v2.864h7.045v3.437h-3.545v2.864h3.545v31.2h-9.778v-13.449h-2.864v13.533a12.2,12.2,0,0,0-2.457.552v-7.35h-2.864v8.752a12.4,12.4,0,0,0-2.639,2.354Z" fill="#453d7a"/><path d="M680.528,5672.94a5.016,5.016,0,0,1-1.966-1l-1.83,2.2a7.884,7.884,0,0,0,3.1,1.575Z" fill="#453d7a"/><path d="M680.024,5660.426a7.9,7.9,0,0,0-3.137,1.5l1.774,2.248a5.016,5.016,0,0,1,1.99-.949Z" fill="#453d7a"/><path d="M677.646,5665.248l-2.351-1.635a7.886,7.886,0,0,0-1.3,3.222l2.828.456A4.919,4.919,0,0,1,677.646,5665.248Z" fill="#453d7a"/><path d="M675.182,5672.411l2.393-1.574a4.916,4.916,0,0,1-.773-2.064l-2.838.384A7.766,7.766,0,0,0,675.182,5672.411Z" fill="#453d7a"/><path d="M681.316,5650.8h-.9a6.083,6.083,0,1,0,0,2.864h.9Zm-6.808,4.651a3.219,3.219,0,1,1,3.219-3.219A3.223,3.223,0,0,1,674.508,5655.45Z" fill="#453d7a"/><rect width="2.864" height="2.864" transform="translate(692.771 5650.798)" fill="#453d7a"/><rect width="2.864" height="2.864" transform="translate(687.009 5660.234)" fill="#453d7a"/><rect width="2.864" height="2.864" transform="translate(686.845 5673.092)" fill="#453d7a"/><rect width="2.864" height="2.864" transform="translate(691.782 5660.234)" fill="#453d7a"/><rect width="2.864" height="2.864" transform="translate(691.618 5673.092)" fill="#453d7a"/><rect width="2.864" height="2.864" transform="translate(682.071 5673.092)" fill="#453d7a"/><rect width="2.864" height="2.864" transform="translate(687.998 5650.798)" fill="#453d7a"/><rect width="2.864" height="2.864" transform="translate(683.225 5650.798)" fill="#453d7a"/><rect width="2.864" height="2.864" transform="translate(682.236 5660.234)" fill="#453d7a"/><path d="M699.05,5660.132a3.311,3.311,0,0,1-.821.1h-1.674v2.864h1.674a6.12,6.12,0,0,0,1.534-.194Z" fill="#453d7a"/><path d="M698.229,5650.8h-.683v2.864h.683a3.244,3.244,0,0,1,1.464.343l1.279-2.563A6.1,6.1,0,0,0,698.229,5650.8Z" fill="#453d7a"/><rect width="2.864" height="2.864" transform="translate(696.392 5673.092)" fill="#453d7a"/><path d="M704.092,5658.808l-2.73-.865a3.273,3.273,0,0,1-1.128,1.609l1.751,2.267A6.124,6.124,0,0,0,704.092,5658.808Z" fill="#453d7a"/><path d="M700.734,5654.822a3.259,3.259,0,0,1,.765,1.806l2.851-.275a6.112,6.112,0,0,0-1.434-3.386Z" fill="#453d7a"/><path d="M703.96,5674.523l-2.677,2.678,5.4,5.4,2.678-2.677,2.678,2.677,5.4-5.4-2.678-2.678,2.678-2.677-5.4-5.4-2.678,2.678-2.678-2.678-5.4,5.4Zm1.373-2.677,1.35-1.351,2.678,2.678,2.678-2.678,1.35,1.351-2.678,2.677,2.678,2.678-1.35,1.35-2.678-2.678-2.678,2.678-1.35-1.35,2.678-2.678Z" fill="#453d7a"/><rect width="2.864" height="2.864" transform="translate(704.793 5643.294)" fill="#fff"/><rect width="2.864" height="2.864" transform="translate(709.566 5643.294)" fill="#fff"/><rect width="20.621" height="2.864" transform="translate(682.262 5643.294)" fill="#fff"/></g></svg>