<svg xmlns="http://www.w3.org/2000/svg" width="172.239" height="175.543" viewBox="0 0 172.239 175.543"><g transform="translate(-56.666 -5579.881)"><circle cx="75" cy="75" r="75" transform="translate(67.785 5592.652)" fill="#fff"/><rect width="172.239" height="175.544" transform="translate(56.666 5579.88)" fill="none"/><path d="M171.266,5667.652h-19l14.478-47.8-52.438,47.8h19l-14.478,47.8Z" fill="#f1bf5e"/><path d="M118.827,5718.261a2.806,2.806,0,0,1-2.685-3.62l13.381-44.183H114.305a2.806,2.806,0,0,1-1.89-4.879l52.439-47.8a2.805,2.805,0,0,1,4.575,2.887l-13.382,44.183h15.218a2.806,2.806,0,0,1,1.891,4.88l-52.438,47.8A2.8,2.8,0,0,1,118.827,5718.261Zm2.722-53.415H133.3a2.8,2.8,0,0,1,2.685,3.62l-11.524,38.052,39.556-36.06H152.266a2.8,2.8,0,0,1-2.685-3.619l11.524-38.053Z" fill="#453d7a"/></g></svg>