<svg xmlns="http://www.w3.org/2000/svg" width="172.239" height="175.544" viewBox="0 0 172.239 175.544">
  <g id="Grupo_61675" data-name="Grupo 61675" transform="translate(-152.809 -4328.769)">
    <circle id="Elipse_4256" data-name="Elipse 4256" cx="75" cy="75" r="75" transform="translate(163.928 4341.541)" fill="#fff"/>
    <rect id="Rectángulo_6693" data-name="Rectángulo 6693" width="172.239" height="175.544" transform="translate(152.809 4328.769)" fill="none"/>
    <g id="Grupo_61678" data-name="Grupo 61678">
      <g id="Grupo_61676" data-name="Grupo 61676">
        <path id="Trazado_110991" data-name="Trazado 110991" d="M250.171,4458.863v2.631a6.177,6.177,0,0,1-6.189,6.188h-9.489a6.177,6.177,0,0,1-6.188-6.188v-2.631a6.551,6.551,0,0,0,2.682.568h16.5A6.554,6.554,0,0,0,250.171,4458.863Z" fill="#68d0e8"/>
        <g id="Grupo_61675-2" data-name="Grupo 61675">
          <path id="Trazado_110992" data-name="Trazado 110992" d="M238.928,4377.377a1.547,1.547,0,0,1-1.547-1.547V4365.4a1.548,1.548,0,0,1,3.1,0v10.431a1.548,1.548,0,0,1-1.548,1.547Z" fill="#ffe7c9"/>
          <path id="Trazado_110993" data-name="Trazado 110993" d="M211.157,4388.88a1.541,1.541,0,0,1-1.094-.453l-7.376-7.376a1.548,1.548,0,0,1,2.189-2.188l7.375,7.376a1.547,1.547,0,0,1-1.094,2.641Z" fill="#ffe7c9"/>
          <path id="Trazado_110994" data-name="Trazado 110994" d="M199.654,4416.651H189.223a1.547,1.547,0,1,1,0-3.094h10.431a1.547,1.547,0,1,1,0,3.094Z" fill="#ffe7c9"/>
          <path id="Trazado_110995" data-name="Trazado 110995" d="M203.782,4451.8a1.547,1.547,0,0,1-1.1-2.641l7.376-7.375a1.547,1.547,0,0,1,2.188,2.188l-7.375,7.375A1.546,1.546,0,0,1,203.782,4451.8Z" fill="#ffe7c9"/>
          <path id="Trazado_110996" data-name="Trazado 110996" d="M274.075,4451.8a1.543,1.543,0,0,1-1.094-.453l-7.376-7.375a1.547,1.547,0,0,1,2.189-2.188l7.375,7.375a1.547,1.547,0,0,1-1.094,2.641Z" fill="#ffe7c9"/>
          <path id="Trazado_110997" data-name="Trazado 110997" d="M288.634,4416.651H278.2a1.547,1.547,0,1,1,0-3.094h10.431a1.547,1.547,0,1,1,0,3.094Z" fill="#ffe7c9"/>
          <path id="Trazado_110998" data-name="Trazado 110998" d="M266.7,4388.88a1.547,1.547,0,0,1-1.1-2.641l7.376-7.376a1.547,1.547,0,1,1,2.188,2.188l-7.375,7.376A1.543,1.543,0,0,1,266.7,4388.88Z" fill="#ffe7c9"/>
        </g>
        <path id="Trazado_110999" data-name="Trazado 110999" d="M239.238,4457.368s-10.114,1.861-10.933,1.495v2.631a6.177,6.177,0,0,0,6.188,6.188h2.682a6.191,6.191,0,0,1-5.833-4.118.621.621,0,0,1,.581-.833h15.566a6.567,6.567,0,0,0,2.645-.551,6.217,6.217,0,0,0,.037-.686v-2.631C249.352,4459.229,239.238,4457.368,239.238,4457.368Z" fill="#02596d"/>
        <path id="Trazado_111000" data-name="Trazado 111000" d="M254.09,4452.83a6.6,6.6,0,0,1-6.6,6.6h-16.5a6.6,6.6,0,0,1-6.6-6.6s-.1-9.642-.115-9.894v-.008l14.968-2.063,14.8,2.063Z" fill="#68d0e8"/>
        <path id="Trazado_111001" data-name="Trazado 111001" d="M236.144,4459.431h-5.157a6.6,6.6,0,0,1-6.6-6.6s-.1-9.642-.115-9.894v-.008h5.157v.008c.019.252.116,9.894.116,9.894a6.6,6.6,0,0,0,6.6,6.6Z" fill="#02596d"/>
        <path id="Trazado_111002" data-name="Trazado 111002" d="M254.09,4452.726h-5.26a1.547,1.547,0,0,1,0-3.094h5.244l.008,1.547Z" fill="#02596d"/>
        <path id="Trazado_111003" data-name="Trazado 111003" d="M243.157,4451.179a1.547,1.547,0,0,1-1.547,1.547H224.383l-.035-3.094H241.61A1.548,1.548,0,0,1,243.157,4451.179Z" fill="#02596d"/>
        <path id="Trazado_111004" data-name="Trazado 111004" d="M238.955,4382.521h0c-15.931-.245-29.329,13.64-29.043,29.456a29.591,29.591,0,0,0,8.374,20.7c3.05,3.137,5.691,6.038,5.984,10.25l29.765.049c.167-4.336,2.632-7.265,5.7-10.473a29.588,29.588,0,0,0,8.206-20.527,29.239,29.239,0,0,0-28.99-29.456Z" fill="#fad207"/>
        <path id="Trazado_111005" data-name="Trazado 111005" d="M254.035,4442.969v.008l-29.765-.049c-.293-4.212-2.934-7.113-5.985-10.25a29.6,29.6,0,0,1-8.373-20.7c-.287-15.816,13.112-29.7,29.043-29.456.8,0,1.6.035,2.389.1-14.683,1.288-26.545,14.467-26.275,29.357a29.6,29.6,0,0,0,8.373,20.7c3.051,3.137,5.692,6.038,5.985,10.25Z" fill="#faa515"/>
        <path id="Trazado_111006" data-name="Trazado 111006" d="M239.657,4426.72a3.4,3.4,0,0,1-2.561,1.314l-.128,0a3.408,3.408,0,0,1-2.525-1.122l-9.695-10.727a3.4,3.4,0,1,1,5.051-4.564l6.972,7.714,11.124-14.327a3.4,3.4,0,1,1,5.377,4.175Z" fill="#faa515"/>
      </g>
      <g id="Grupo_61677" data-name="Grupo 61677">
        <path id="Trazado_111007" data-name="Trazado 111007" d="M238.928,4377.377a1.548,1.548,0,0,0,1.548-1.547V4365.4a1.548,1.548,0,0,0-3.1,0v10.431a1.547,1.547,0,0,0,1.547,1.547Z" fill="#453d7a"/>
        <path id="Trazado_111008" data-name="Trazado 111008" d="M210.063,4388.427a1.547,1.547,0,0,0,2.188-2.188l-7.375-7.376a1.548,1.548,0,0,0-2.189,2.188Z" fill="#453d7a"/>
        <path id="Trazado_111009" data-name="Trazado 111009" d="M199.654,4413.557H189.223a1.547,1.547,0,1,0,0,3.094h10.431a1.547,1.547,0,1,0,0-3.094Z" fill="#453d7a"/>
        <path id="Trazado_111010" data-name="Trazado 111010" d="M210.063,4441.781l-7.376,7.376a1.548,1.548,0,0,0,2.189,2.188l7.375-7.376a1.547,1.547,0,0,0-2.188-2.188Z" fill="#453d7a"/>
        <path id="Trazado_111011" data-name="Trazado 111011" d="M267.794,4441.781a1.547,1.547,0,0,0-2.188,2.188l7.375,7.376a1.547,1.547,0,1,0,2.188-2.188Z" fill="#453d7a"/>
        <path id="Trazado_111012" data-name="Trazado 111012" d="M288.634,4413.557H278.2a1.547,1.547,0,1,0,0,3.094h10.431a1.547,1.547,0,1,0,0-3.094Z" fill="#453d7a"/>
        <path id="Trazado_111013" data-name="Trazado 111013" d="M272.981,4378.863l-7.375,7.376a1.547,1.547,0,0,0,2.188,2.188l7.375-7.376a1.547,1.547,0,1,0-2.188-2.188Z" fill="#453d7a"/>
        <path id="Trazado_111014" data-name="Trazado 111014" d="M269.492,4411.977a30.821,30.821,0,0,0-30.564-31,30.137,30.137,0,0,0-16.569,4.947,30.932,30.932,0,0,0-11.072,12.811,1.547,1.547,0,1,0,2.8,1.308,27.405,27.405,0,0,1,52.307,11.937,27.992,27.992,0,0,1-7.778,19.458c-2.89,3.019-5.351,5.9-5.984,9.946H225.625c-.8-4.2-3.66-7.14-6.232-9.783a27.975,27.975,0,0,1-7.934-19.621,28.615,28.615,0,0,1,.519-5.428,1.547,1.547,0,0,0-3.038-.589,31.681,31.681,0,0,0-.575,6.017,31.047,31.047,0,0,0,8.811,21.779c3.263,3.353,5.573,6.03,5.573,9.953v.041l.088,9.08a8.152,8.152,0,0,0,3.92,6.962v1.7a7.744,7.744,0,0,0,7.736,7.735h9.489a7.744,7.744,0,0,0,7.735-7.735v-1.7a8.149,8.149,0,0,0,3.92-6.962s-.011-10.114-.032-10.215c.294-3.585,2.467-6.134,5.25-9.04a31.078,31.078,0,0,0,8.636-21.6Zm-20.868,49.517a4.646,4.646,0,0,1-4.642,4.641h-9.489a4.646,4.646,0,0,1-4.641-4.641v-.6a8.125,8.125,0,0,0,1.135.081h16.5a8.136,8.136,0,0,0,1.135-.081Zm-1.135-3.61h-16.5a5.059,5.059,0,0,1-5.054-5.054v-.1H241.61a1.547,1.547,0,0,0,0-3.094H225.933v-5.157h26.562l.048,5.157H248.83a1.547,1.547,0,0,0,0,3.094h3.713v.1A5.059,5.059,0,0,1,247.489,4457.884Z" fill="#453d7a"/>
        <path id="Trazado_111015" data-name="Trazado 111015" d="M248.987,4412.182a1.547,1.547,0,0,0,2.444,1.9l3.063-3.944a4.951,4.951,0,1,0-7.821-6.073l-9.992,12.869-5.735-6.345a4.951,4.951,0,0,0-7.346,6.64l9.7,10.727a4.982,4.982,0,0,0,7.583-.284l6.123-7.886a1.547,1.547,0,1,0-2.443-1.9l-6.124,7.887a1.869,1.869,0,0,1-2.844.106l-9.7-10.727a1.857,1.857,0,0,1,2.755-2.49l6.972,7.715a1.559,1.559,0,0,0,2.37-.089l11.124-14.327a1.857,1.857,0,1,1,2.933,2.278Z" fill="#453d7a"/>
      </g>
    </g>
  </g>
</svg>
