<svg xmlns="http://www.w3.org/2000/svg" width="172.239" height="175.543" viewBox="0 0 172.239 175.543"><g transform="translate(-418.547 -5776.559)"><circle cx="75" cy="75" r="75" transform="translate(429.667 5789.33)" fill="#fff"/><rect width="172.239" height="175.544" transform="translate(418.547 5776.558)" fill="none"/><rect width="87.494" height="87.494" rx="10.374" transform="translate(460.92 5820.583)" fill="#b8aff8"/><path d="M538.041,5911.109H471.293a13.42,13.42,0,0,1-13.406-13.406v-66.747a13.421,13.421,0,0,1,13.406-13.405h66.748a13.42,13.42,0,0,1,13.4,13.405V5897.7A13.42,13.42,0,0,1,538.041,5911.109Zm-66.748-87.494a7.35,7.35,0,0,0-7.341,7.341V5897.7a7.349,7.349,0,0,0,7.341,7.342h66.748a7.35,7.35,0,0,0,7.341-7.342v-66.747a7.35,7.35,0,0,0-7.341-7.341Z" fill="#453d7a"/><path d="M548.414,5851.576H460.92a3.032,3.032,0,1,1,0-6.065h87.494a3.032,3.032,0,0,1,0,6.065Z" fill="#453d7a"/><path d="M548.414,5883.148H460.92a3.032,3.032,0,1,1,0-6.064h87.494a3.032,3.032,0,1,1,0,6.064Z" fill="#453d7a"/><path d="M483.318,5851.576a3.033,3.033,0,0,1-3.032-3.033v-27.96a3.033,3.033,0,0,1,6.065,0v27.96A3.033,3.033,0,0,1,483.318,5851.576Z" fill="#453d7a"/><path d="M483.318,5911.109a3.032,3.032,0,0,1-3.032-3.032v-27.961a3.033,3.033,0,0,1,6.065,0v27.961A3.032,3.032,0,0,1,483.318,5911.109Z" fill="#453d7a"/><path d="M526.015,5851.576a3.033,3.033,0,0,1-3.032-3.033v-27.96a3.032,3.032,0,1,1,6.064,0v27.96A3.033,3.033,0,0,1,526.015,5851.576Z" fill="#453d7a"/><path d="M526.015,5911.109a3.031,3.031,0,0,1-3.032-3.032v-27.961a3.032,3.032,0,1,1,6.064,0v27.961A3.031,3.031,0,0,1,526.015,5911.109Z" fill="#453d7a"/><path d="M505.44,5883.148a3.031,3.031,0,0,1-3.032-3.032v-31.573a3.032,3.032,0,0,1,6.064,0v31.573A3.031,3.031,0,0,1,505.44,5883.148Z" fill="#453d7a"/></g></svg>