<svg xmlns="http://www.w3.org/2000/svg" width="172.239" height="175.543" viewBox="0 0 172.239 175.543"><g transform="translate(-805.539 -5579.881)"><circle cx="75" cy="75" r="75" transform="translate(816.658 5592.652)" fill="#fff"/><rect width="172.239" height="175.544" transform="translate(805.539 5579.88)" fill="none"/><path d="M861.005,5663.65a9.953,9.953,0,0,1-.1-1.408,9.785,9.785,0,0,1,19.569.01v.014a1.386,1.386,0,0,0,1.383,1.384h5.654a1.351,1.351,0,0,0,1.35-1.35v-11.23a2.795,2.795,0,0,1,4.474-2.235,4.165,4.165,0,0,0,2.621.835,4.193,4.193,0,0,0-.106-8.385,4.154,4.154,0,0,0-2.479.81,2.849,2.849,0,0,1-2.032.573,2.8,2.8,0,0,1-2.478-2.781v-14.025a1.35,1.35,0,0,0-1.35-1.35H852.52a2.8,2.8,0,0,0-2.8,2.795V5662.3a1.35,1.35,0,0,0,1.35,1.35Z" fill="#05dbf3"/><path d="M894.453,5634.709a1,1,0,0,0,1.045.991c.118,0,.235-.006.353-.006a9.785,9.785,0,0,1,.007,19.569c-.124,0-.249,0-.373-.006a1.007,1.007,0,0,0-1.032,1.012v6.031a1.35,1.35,0,0,0,1.35,1.35h11.162a2.864,2.864,0,0,1,2.28,1.087,2.8,2.8,0,0,1,.022,3.388,4.165,4.165,0,0,0-.836,2.619,4.194,4.194,0,0,0,8.386-.1,4.156,4.156,0,0,0-.81-2.479,2.853,2.853,0,0,1-.573-2.033,2.8,2.8,0,0,1,2.782-2.477h14.024a1.349,1.349,0,0,0,1.35-1.35v-34.993a2.794,2.794,0,0,0-2.795-2.795H895.8a1.35,1.35,0,0,0-1.35,1.35Z" fill="#69e9f8"/><path d="M887.813,5697.19a9.9,9.9,0,0,1-1.075-.02,9.785,9.785,0,0,1,.727-19.543c.118,0,.235,0,.353.007a1,1,0,0,0,1.045-.992v-6.051a1.35,1.35,0,0,0-1.35-1.35H876.349a2.863,2.863,0,0,1-2.28-1.087,2.8,2.8,0,0,1-.022-3.387,4.156,4.156,0,0,0,.836-2.619,4.193,4.193,0,0,0-8.385.1,4.157,4.157,0,0,0,.812,2.48,2.851,2.851,0,0,1,.572,2.032,2.8,2.8,0,0,1-2.782,2.477H851.075a1.35,1.35,0,0,0-1.35,1.35v34.992a2.8,2.8,0,0,0,2.8,2.8h34.993a1.351,1.351,0,0,0,1.35-1.35v-8.843a1,1,0,0,0-1.05-1Z" fill="#f1bf5e"/><path d="M922.4,5670.27c.005.123.007.247.007.371a9.784,9.784,0,0,1-19.569,0c0-.118,0-.236.006-.353a1,1,0,0,0-.991-1.045H895.8a1.349,1.349,0,0,0-1.35,1.35v11.23a2.8,2.8,0,0,1-2.112,2.712,2.907,2.907,0,0,1-2.416-.517,4.15,4.15,0,0,0-2.306-.795,4.193,4.193,0,1,0-.155,8.384,4.156,4.156,0,0,0,2.479-.81,2.845,2.845,0,0,1,2.032-.573,2.8,2.8,0,0,1,2.478,2.782v14.024a1.35,1.35,0,0,0,1.35,1.35H930.8a2.794,2.794,0,0,0,2.795-2.795v-34.992a1.349,1.349,0,0,0-1.35-1.35h-8.83a1,1,0,0,0-1.009,1.029Z" fill="#a194f5"/><path d="M930.8,5624.512h-3.881a2.8,2.8,0,0,1,2.8,2.795V5662.3a1.35,1.35,0,0,1-1.35,1.35h3.881a1.35,1.35,0,0,0,1.35-1.35v-34.993A2.794,2.794,0,0,0,930.8,5624.512Z" fill="#36c1e1"/><path d="M903.085,5663.649h0Z" fill="#36c1e1"/><path d="M932.241,5669.241H928.36a1.349,1.349,0,0,1,1.35,1.35v34.992a2.8,2.8,0,0,1-2.8,2.795H930.8a2.794,2.794,0,0,0,2.795-2.795v-34.992A1.349,1.349,0,0,0,932.241,5669.241Z" fill="#8979f3"/><path d="M849.725,5664.916h11.28a1.265,1.265,0,0,0,1.253-1.444,8.687,8.687,0,0,1-.086-1.22,8.519,8.519,0,1,1,17.038,0,8.687,8.687,0,0,1-.086,1.22,1.265,1.265,0,0,0,1.253,1.444h8.486a1.265,1.265,0,0,0,1.265-1.266v-12.58a1.53,1.53,0,0,1,2.449-1.223,5.459,5.459,0,1,0,0-8.737,1.53,1.53,0,0,1-2.449-1.223v-15.375a1.266,1.266,0,0,0-1.266-1.266H852.52a4.066,4.066,0,0,0-4.061,4.061v3.324a1.266,1.266,0,1,0,2.531,0v-3.324a1.532,1.532,0,0,1,1.53-1.53H887.6v14.11a4.061,4.061,0,0,0,6.5,3.247,2.9,2.9,0,0,1,1.754-.583,2.927,2.927,0,1,1-1.754,5.272,4.061,4.061,0,0,0-6.5,3.247v11.314H881.74c0-.045,0-.089,0-.133a11.05,11.05,0,0,0-22.1,0c0,.044,0,.088,0,.133H850.99v-26.691a1.266,1.266,0,1,0-2.531,0v27.956a1.266,1.266,0,0,0,1.266,1.266Z" fill="#453d7a"/><path d="M856.581,5638.489V5631.5a.132.132,0,0,1,.132-.132H863.7a1.266,1.266,0,1,0,0-2.531h-6.988a2.667,2.667,0,0,0-2.664,2.663v6.989a1.266,1.266,0,1,0,2.531,0Z" fill="#453d7a"/><path d="M926.6,5628.837h-6.99a1.266,1.266,0,0,0,0,2.531h6.99a.132.132,0,0,1,.132.132v6.989a1.266,1.266,0,1,0,2.531,0V5631.5A2.667,2.667,0,0,0,926.6,5628.837Z" fill="#453d7a"/><path d="M929.266,5701.39v-6.99a1.266,1.266,0,0,0-2.531,0v6.99a.133.133,0,0,1-.132.132h-6.989a1.266,1.266,0,1,0,0,2.531H926.6a2.667,2.667,0,0,0,2.663-2.663Z" fill="#453d7a"/><path d="M863.7,5701.522h-6.989a.134.134,0,0,1-.133-.133V5694.4a1.266,1.266,0,1,0-2.531,0v6.988a2.667,2.667,0,0,0,2.664,2.664H863.7a1.266,1.266,0,0,0,0-2.531Z" fill="#453d7a"/><path d="M930.8,5623.246H894.453a1.265,1.265,0,0,0-1.265,1.266v11.28a1.265,1.265,0,0,0,1.443,1.253,8.664,8.664,0,0,1,1.22-.085,8.519,8.519,0,1,1,0,17.037,8.759,8.759,0,0,1-1.22-.086,1.266,1.266,0,0,0-1.443,1.254v8.485a1.265,1.265,0,0,0,1.266,1.265h12.579a1.529,1.529,0,0,1,1.223,2.449,5.46,5.46,0,1,0,8.737,0,1.53,1.53,0,0,1,1.223-2.449h15.375a1.265,1.265,0,0,0,1.266-1.265v-36.343a4.066,4.066,0,0,0-4.061-4.061Zm1.53,39.138h-14.11a4.061,4.061,0,0,0-3.247,6.5,2.9,2.9,0,0,1,.583,1.755,2.927,2.927,0,1,1-5.272-1.755,4.061,4.061,0,0,0-3.247-6.5H895.719v-5.856a11.05,11.05,0,1,0,.132-22.1h-.132v-8.652H930.8a1.533,1.533,0,0,1,1.53,1.53v35.077Z" fill="#453d7a"/><path d="M889.692,5696.142a1.266,1.266,0,0,0-1.007-.3,8.759,8.759,0,0,1-1.22.086,8.519,8.519,0,0,1,0-17.038,8.685,8.685,0,0,1,1.22.086,1.267,1.267,0,0,0,1.444-1.253v-8.485a1.265,1.265,0,0,0-1.265-1.266h-12.58a1.531,1.531,0,0,1-1.224-2.449,5.409,5.409,0,0,0,1.091-3.275,5.459,5.459,0,0,0-10.918,0,5.41,5.41,0,0,0,1.092,3.275,1.531,1.531,0,0,1-1.224,2.449H849.725a1.265,1.265,0,0,0-1.266,1.265v36.342a4.066,4.066,0,0,0,4.061,4.061h36.343a1.265,1.265,0,0,0,1.265-1.266V5697.1a1.266,1.266,0,0,0-.436-.956Zm-2.1,10.971H852.52a1.531,1.531,0,0,1-1.53-1.53v-35.076H865.1a4.061,4.061,0,0,0,3.247-6.5,2.9,2.9,0,0,1-.584-1.755,2.928,2.928,0,0,1,5.856,0,2.894,2.894,0,0,1-.584,1.754,4.062,4.062,0,0,0,3.247,6.5H887.6v5.856h-.133a11.05,11.05,0,0,0,0,22.1h.133v8.652Z" fill="#453d7a"/><path d="M933.591,5667.975h-11.28a1.265,1.265,0,0,0-1.253,1.444,8.668,8.668,0,0,1,.086,1.219,8.519,8.519,0,1,1-17.038,0,8.668,8.668,0,0,1,.086-1.219,1.265,1.265,0,0,0-1.253-1.444h-8.485a1.265,1.265,0,0,0-1.265,1.266v12.58a1.53,1.53,0,0,1-2.449,1.223,5.411,5.411,0,0,0-3.275-1.091,5.459,5.459,0,1,0,0,10.918,5.405,5.405,0,0,0,3.274-1.091,1.53,1.53,0,0,1,2.449,1.223v15.375a1.266,1.266,0,0,0,1.266,1.266h28.591a1.266,1.266,0,0,0,0-2.531H895.719V5693a4.062,4.062,0,0,0-6.5-3.247,2.894,2.894,0,0,1-1.755.583,2.927,2.927,0,1,1,1.755-5.272,4.061,4.061,0,0,0,6.5-3.246v-11.315h5.856c0,.044,0,.088,0,.132a11.05,11.05,0,0,0,22.1,0v-.132h8.652v35.077a1.533,1.533,0,0,1-1.53,1.53H928a1.266,1.266,0,0,0,0,2.531h2.8a4.066,4.066,0,0,0,4.061-4.061v-36.342a1.266,1.266,0,0,0-1.266-1.266Z" fill="#453d7a"/></g></svg>