<svg xmlns="http://www.w3.org/2000/svg" width="172.239" height="175.543" viewBox="0 0 172.239 175.543"><g transform="translate(-997.285 -5579.881)"><circle cx="75" cy="75" r="75" transform="translate(1008.405 5592.652)" fill="#fff"/><rect width="172.239" height="175.544" transform="translate(997.285 5579.88)" fill="none"/><path d="M1102.889,5685.407l-10.369-7.343a3.958,3.958,0,0,1-.686-5.85l7.868-8.877a7.963,7.963,0,0,0-.323-10.813l-1.009-1.008a7.891,7.891,0,0,1,0-11.136l4.237-4.277a4,4,0,0,0,.726-4.518l-2.905-5.81a45.278,45.278,0,0,0-21.3-3.349c-23.805,2.1-42.243,23.441-41.073,47.528a45.255,45.255,0,0,0,44.987,43.09,47.035,47.035,0,0,0,4.8-.242,3.988,3.988,0,0,0,1.694-7.262l-.686-.444a3.97,3.97,0,0,1,.525-6.859l12.951-6.012A3.965,3.965,0,0,0,1102.889,5685.407Z" fill="#a194f5"/><path d="M1119.778,5713.254l-10.014-3.4a4.719,4.719,0,0,1-3.038-3.539,5.178,5.178,0,0,1,1.416-4.853l6.109-5.8a4.256,4.256,0,0,1,5.943,0l7.056,6.7a5.088,5.088,0,0,1,1.533,3.945,5,5,0,0,1-1.847,3.728l-3.156,2.494a4.22,4.22,0,0,1-4,.722Z" fill="#ffc107"/><path d="M1120.383,5676.119l-5.826-1.174a4.708,4.708,0,0,1-3.546-6.548l3.7-9.232a6.869,6.869,0,0,1,5.757-4.107,5.119,5.119,0,0,1,4.943,2.308c1.274,2.094,3.594,4.906,3.356,7.343l-.593,5.951c-.339,3.442-4.147,6.185-7.795,5.459Z" fill="#ffc107"/><path d="M1116.938,5637.62l-1.864-4.486c-1.316-3.155.73-6.843,3.966-6.843,2,0,3.518-.266,5,.92l2.957,2.368a5.1,5.1,0,0,1-.476,8.134l-3.518,2.114a4.2,4.2,0,0,1-6.064-2.207Z" fill="#ffc107"/><path d="M1076.341,5639.412h-24.208a3.026,3.026,0,0,1,0-6.052h24.208a3.026,3.026,0,0,1,0,6.052Z" fill="#453d7a"/><path d="M1064.237,5653.533h-21.182a3.026,3.026,0,0,1,0-6.052h21.182a3.026,3.026,0,0,1,0,6.052Z" fill="#453d7a"/><path d="M1095.909,5653.533h-17.551a3.026,3.026,0,0,1,0-6.052h17.551a3.026,3.026,0,0,1,0,6.052Z" fill="#453d7a"/><path d="M1084.41,5665.637h-44.381a3.026,3.026,0,0,1,0-6.052h44.381a3.026,3.026,0,0,1,0,6.052Z" fill="#453d7a"/><path d="M1089.454,5679.758h-15.13a3.026,3.026,0,1,1,0-6.052h15.13a3.026,3.026,0,1,1,0,6.052Z" fill="#453d7a"/><path d="M1072.306,5699.932h-23.2a3.026,3.026,0,0,1,0-6.052h23.2a3.026,3.026,0,0,1,0,6.052Z" fill="#453d7a"/><path d="M1083.043,5716.07a48.158,48.158,0,0,1-48-45.987c-1.263-25.713,18.386-48.444,43.805-50.663a47.569,47.569,0,0,1,22.751,3.563,3.02,3.02,0,0,1,1.537,1.44l2.9,5.8a6.945,6.945,0,0,1-1.279,8l-4.248,4.284a4.884,4.884,0,0,0,0,6.867l1.016,1.029a10.971,10.971,0,0,1,.436,14.945l-7.831,8.884a.954.954,0,0,0-.238.742.856.856,0,0,0,.367.618l10.389,7.351a6.982,6.982,0,0,1-1.069,12.043l-12.915,6a.868.868,0,0,0-.516.758.893.893,0,0,0,.4.839l.69.464a6.967,6.967,0,0,1,2.877,7.533,6.83,6.83,0,0,1-5.939,5.221,48.133,48.133,0,0,1-5.128.27Zm.044-90.779q-1.847,0-3.712.161c-22.219,1.941-39.394,21.827-38.289,44.337a42.112,42.112,0,0,0,41.957,40.229,43.193,43.193,0,0,0,4.49-.234.773.773,0,0,0,.7-.657.944.944,0,0,0-.383-1.057l-.686-.464a6.979,6.979,0,0,1,.948-12.108l12.923-6a.882.882,0,0,0,.521-.759.894.894,0,0,0-.384-.839l-10.4-7.359a6.966,6.966,0,0,1-1.186-10.313l7.831-8.884a4.9,4.9,0,0,0-.194-6.677l-1.016-1.029a10.96,10.96,0,0,1,0-15.392l4.248-4.289a.9.9,0,0,0,.162-1.033l-2.385-4.777a41.587,41.587,0,0,0-15.146-2.856Z" fill="#453d7a"/><path d="M1122.058,5716.07a5.318,5.318,0,0,1-1.711-.282l-12.741-4.321a5.992,5.992,0,0,1-3.866-4.5,6.589,6.589,0,0,1,1.8-6.177l7.775-7.383a5.422,5.422,0,0,1,7.565,0l8.985,8.529a6.492,6.492,0,0,1,1.952,5.023,6.363,6.363,0,0,1-2.352,4.745l-4.014,3.175a5.487,5.487,0,0,1-3.393,1.194Zm.226-6.015-5.189-11.9-7.387,7.017a.733.733,0,0,0,0,.661l12.225,4.1,3.768-2.982a.765.765,0,0,0-.016-.638Z" fill="#79602f"/><path d="M1122.207,5679.758a8.155,8.155,0,0,1-1.6-.157l-7.762-1.561a6.273,6.273,0,0,1-4.721-8.723l4.938-12.3a9.151,9.151,0,0,1,7.67-5.471,6.818,6.818,0,0,1,6.585,3.074l3.615,5.935a6.185,6.185,0,0,1,.851,3.845l-.791,7.929a8.067,8.067,0,0,1-3.364,5.588,9.172,9.172,0,0,1-5.423,1.843Zm-.775-22.19a1.759,1.759,0,0,0-.2.008,3.134,3.134,0,0,0-2.55,1.694l-4.939,12.3c-.06.4.049.484.3.537l7.762,1.561a3.058,3.058,0,0,0,2.232-.621,2.182,2.182,0,0,0,.94-1.32l.786-7.924,2.587-1.678-2.587,1.573-3.615-5.939A.965.965,0,0,0,1121.432,5657.568Z" fill="#79602f"/><path d="M1120.561,5643.45a5.831,5.831,0,0,1-1.8-.29,6.449,6.449,0,0,1-3.873-3.708l-2.667-6.4a7.52,7.52,0,0,1,.646-6.984,6.006,6.006,0,0,1,5.023-2.792h3.466a5.821,5.821,0,0,1,3.675,1.315l4.22,3.382a7.128,7.128,0,0,1,2.546,6.088,6.914,6.914,0,0,1-3.227,5.531l-5.02,3.018a5.758,5.758,0,0,1-2.985.843Zm-2.586-14.125a1.409,1.409,0,0,0-.17,1.4l2.667,6.4,4.983-2.727a1.036,1.036,0,0,0,.306-.751,1.19,1.19,0,0,0-.29-.956l-4.224-3.381Z" fill="#79602f"/></g></svg>