<svg xmlns="http://www.w3.org/2000/svg" width="172.239" height="175.543" viewBox="0 0 172.239 175.543"><g transform="translate(-418.547 -5579.88)"><circle cx="75" cy="75" r="75" transform="translate(429.667 5592.652)" fill="#fff"/><rect width="172.239" height="175.544" transform="translate(418.547 5579.88)" fill="none"/><path d="M504.667,5715.009c47.245-25.183,47.468-64.182,47.468-64.182-15.823-23.4-47.468-30.531-47.468-30.531s-31.646,7.131-47.468,30.531C457.2,5650.827,457.422,5689.826,504.667,5715.009Z" fill="#ccc"/><path d="M504.678,5631.675c-6.557,1.962-25,8.476-36.161,22.306,1.27,8.416,7.33,30.973,36.15,48.4,28.821-17.43,34.88-39.989,36.15-48.4C529.624,5640.082,511.247,5633.624,504.678,5631.675Z" fill="#b8aff8"/><path d="M515.332,5676.046H494l10.665-21.33Z" fill="#f1bf5e"/><path d="M504.667,5717.562a2.554,2.554,0,0,1-1.2-.3c-25.032-13.342-36.965-30.593-42.568-42.716-6.124-13.249-6.251-23.284-6.253-23.705a2.554,2.554,0,0,1,.438-1.445c16.2-23.963,47.69-31.292,49.022-31.592a2.563,2.563,0,0,1,1.123,0c1.333.3,32.819,7.629,49.022,31.592a2.547,2.547,0,0,1,.438,1.445c0,.421-.129,10.456-6.252,23.705-5.6,12.123-17.537,29.374-42.568,42.716A2.555,2.555,0,0,1,504.667,5717.562Zm-44.878-65.994a61.544,61.544,0,0,0,5.861,21.085c5.2,11.142,16.182,26.944,39.017,39.452,22.834-12.508,33.814-28.31,39.016-39.452a61.531,61.531,0,0,0,5.861-21.086c-14.053-20.067-40.673-27.563-44.877-28.641C500.467,5624,473.843,5631.5,459.789,5651.568Z" fill="#453d7a"/><path d="M504.667,5704.936a2.557,2.557,0,0,1-1.322-.368c-29.573-17.885-35.974-41.068-37.353-50.205a2.554,2.554,0,0,1,.537-1.985c11.475-14.222,29.99-20.927,37.417-23.15a2.55,2.55,0,0,1,1.459,0c7.41,2.2,25.888,8.855,37.4,23.15a2.554,2.554,0,0,1,.536,1.983c-1.38,9.138-7.781,32.324-37.354,50.208A2.562,2.562,0,0,1,504.667,5704.936Zm-33.441-50.221c1.593,8.926,7.972,28.732,33.441,44.669,25.47-15.937,31.849-35.748,33.442-44.674-10.3-12.151-26.227-18.153-33.427-20.365C498.611,5636.235,481.726,5642.369,471.226,5654.715Z" fill="#453d7a"/><path d="M515.332,5678.6H494a2.554,2.554,0,0,1-2.284-3.7l10.665-21.33a2.554,2.554,0,0,1,2.284-1.412h0a2.556,2.556,0,0,1,2.285,1.412l10.664,21.33a2.554,2.554,0,0,1-2.284,3.7Zm-17.2-5.108H511.2l-6.532-13.065Z" fill="#453d7a"/></g></svg>