<svg xmlns="http://www.w3.org/2000/svg" width="172.239" height="175.543" viewBox="0 0 172.239 175.543"><g transform="translate(-361.439 -4510.939)"><circle cx="75" cy="75" r="75" transform="translate(372.558 4523.712)" fill="#fff"/><rect width="172.239" height="175.544" transform="translate(361.439 4510.94)" fill="none"/><path d="M495.418,4557.1v53.053a5.213,5.213,0,0,1-5.214,5.213H407.022a5.213,5.213,0,0,1-5.213-5.213V4557.1a5.214,5.214,0,0,1,5.213-5.215H490.2A5.215,5.215,0,0,1,495.418,4557.1Z" fill="#0385a3"/><path d="M495.418,4557.1v53.053a5.213,5.213,0,0,1-5.214,5.213h-5.646a5.213,5.213,0,0,0,5.213-5.213V4557.1a5.215,5.215,0,0,0-5.213-5.215H490.2A5.215,5.215,0,0,1,495.418,4557.1Z" fill="#02596d"/><path d="M407.454,4557.536h82.318v52.18H407.454Z" fill="#52deff"/><path d="M483.872,4557.536h5.9v52.18h-5.9Z" fill="#55baff"/><path d="M480.251,4642.32a9.108,9.108,0,0,1-4.013,2.674,9.233,9.233,0,0,1-5.282.072c-4.066-1.087-8.1-4.635-10.948-9.706a7.286,7.286,0,0,1-8.734-1.286,3.869,3.869,0,0,0-1.217-.846,3.585,3.585,0,0,0-1.444-.305,3.727,3.727,0,0,0-2.662,1.151,7.283,7.283,0,0,1-8.732,1.286c-4.1,7.3-10.655,11.44-16.232,9.634a9.119,9.119,0,0,1-4.013-2.674c-2.381-2.673-3.694-6.841-3.694-11.6a29.448,29.448,0,0,1,1.464-8.986c2.994-9.28,9.751-15.646,15.994-15.622h35.787a9.347,9.347,0,0,1,1.186.076c5.884.74,11.97,6.869,14.77,15.546,2.652,8.218,1.579,16.311-2.23,20.585Z" fill="#eef6ff"/><path d="M482.481,4621.735c2.652,8.218,1.579,16.311-2.23,20.585a9.108,9.108,0,0,1-4.013,2.674,9.233,9.233,0,0,1-5.282.072,9.126,9.126,0,0,0,4-2.671c3.808-4.274,4.882-12.367,2.23-20.583-2.989-9.265-9.723-15.623-15.957-15.623h6.479c5.884.74,11.97,6.869,14.77,15.546Z" fill="#dae6ef"/><path d="M442.706,4629.687a3.441,3.441,0,1,1-.175-4.865,3.435,3.435,0,0,1,.175,4.865Z" fill="#555760"/><path d="M442.706,4629.687a3.435,3.435,0,0,1-4.2.652,3.365,3.365,0,0,0,.827-.652,3.447,3.447,0,0,0-.173-4.865,3.582,3.582,0,0,0-.654-.48,3.441,3.441,0,0,1,4.2,5.345Z" fill="#36383f"/><path d="M459.514,4629.687a3.441,3.441,0,1,1-.175-4.865,3.435,3.435,0,0,1,.175,4.865Z" fill="#555760"/><path d="M459.514,4629.687a3.435,3.435,0,0,1-4.2.652,3.346,3.346,0,0,0,.827-.652,3.447,3.447,0,0,0-.173-4.865,3.581,3.581,0,0,0-.654-.48,3.441,3.441,0,0,1,4.2,5.345Z" fill="#36383f"/><path d="M460.526,4606.114l-3.767,10.671h-16.33l-3.767-10.671Z" fill="#a8b3ba"/><path d="M455.644,4606.114l-3.767,10.671h4.882l3.767-10.671Z" fill="#879299"/><path d="M439.57,4589.608A13.229,13.229,0,0,1,429,4594.984c-.032,0-.063,0-.093,0a13.281,13.281,0,0,1,0-26.561c.027,0,.055,0,.081,0a13.212,13.212,0,0,1,10.231,4.927l-7.942,7.954Z" fill="#fff148"/><path d="M439.57,4589.608A13.229,13.229,0,0,1,429,4594.984c1.953-.109,5.228-3.626,5.228-5.391l-5.616-5.624a3.763,3.763,0,0,1,0-5.322l5.126-5.137c0-1.309-3.007-4.968-4.75-5.083a13.212,13.212,0,0,1,10.231,4.927l-7.942,7.954Z" fill="#ffcf4a"/><path d="M476.307,4590.313a4.678,4.678,0,0,1-4.674,4.673,4.607,4.607,0,0,1-1.172-.149,4.684,4.684,0,0,1-3.458-5.193l1.126-7.939h7.007l1.124,7.939A4.755,4.755,0,0,1,476.307,4590.313Z" fill="#eef6ff"/><path d="M476.307,4590.313a4.678,4.678,0,0,1-4.674,4.673,4.607,4.607,0,0,1-1.172-.149c1.226-.527,2.111-2.381,2.111-4.522,0-.221-.009-.445-.028-.671l-.68-7.939h3.272l1.124,7.939A4.755,4.755,0,0,1,476.307,4590.313Z" fill="#dae6ef"/><path d="M480.786,4581.705H462.479l.861-6.074a8.378,8.378,0,0,1,7.129-7.125,8.48,8.48,0,0,1,1.164-.081,8.378,8.378,0,0,1,8.291,7.206Z" fill="#ff455c"/><path d="M480.786,4581.705H475.4l-.534-6.074c-.327-3.744-2.147-6.617-4.4-7.125a8.48,8.48,0,0,1,1.164-.081,8.378,8.378,0,0,1,8.291,7.206Z" fill="#e51c5f"/><path d="M495.4,4573.9a1.413,1.413,0,0,0-1.413,1.413v34.933a3.81,3.81,0,0,1-3.8,3.81h-9.831a27.134,27.134,0,0,0-2.091-2.834h11.49a1.412,1.412,0,0,0,1.412-1.413v-52.248a1.413,1.413,0,0,0-1.412-1.413H425.707a1.413,1.413,0,0,0,0,2.825H488.34V4608.4H475.416a14.317,14.317,0,0,0-8.947-3.6H451.71a1.413,1.413,0,0,0,0,2.825h6.8l-2.769,7.846H441.409l-2.769-7.846H445.1a1.413,1.413,0,0,0,0-2.825H430.684a14.289,14.289,0,0,0-8.913,3.6H408.848v-49.424H419.06a1.413,1.413,0,0,0,0-2.825H407.435a1.412,1.412,0,0,0-1.412,1.413v52.248a1.412,1.412,0,0,0,1.412,1.413h11.49a27.134,27.134,0,0,0-2.091,2.834H407a3.81,3.81,0,0,1-3.8-3.81v-53.122a3.809,3.809,0,0,1,3.8-3.809h83.143a3.809,3.809,0,0,1,3.8,3.809v11.66a1.413,1.413,0,1,0,2.826,0v-11.66a6.64,6.64,0,0,0-6.628-6.635H407a6.639,6.639,0,0,0-6.627,6.635v53.122a6.638,6.638,0,0,0,6.627,6.635h8.222a31.969,31.969,0,0,0-1.845,4.515c-2.752,8.53-1.763,17.149,2.519,21.956a10.491,10.491,0,0,0,4.634,3.08c5.843,1.891,12.652-1.777,17.24-9.172a8.728,8.728,0,0,0,2.948.514,8.627,8.627,0,0,0,6.221-2.621,2.244,2.244,0,0,1,3.3,0,8.627,8.627,0,0,0,6.221,2.621,8.728,8.728,0,0,0,2.948-.514c3.784,6.1,9.08,9.664,14.1,9.664a10.17,10.17,0,0,0,3.142-.492,10.482,10.482,0,0,0,4.633-3.08c4.283-4.807,5.273-13.426,2.52-21.956a32.093,32.093,0,0,0-1.845-4.515h8.222a6.638,6.638,0,0,0,6.627-6.635v-34.933a1.413,1.413,0,0,0-1.412-1.413Zm-16.221,67.573a7.7,7.7,0,0,1-3.394,2.271c-4.737,1.535-10.728-2.16-14.565-8.982a1.412,1.412,0,0,0-1.916-.543,5.872,5.872,0,0,1-7.037-1.04,5.066,5.066,0,0,0-7.344,0,5.873,5.873,0,0,1-7.037,1.039,1.412,1.412,0,0,0-1.916.543c-3.837,6.822-9.827,10.516-14.565,8.982a7.7,7.7,0,0,1-3.394-2.271c-3.573-4.011-4.353-11.731-1.94-19.21,2.74-8.492,8.881-14.643,14.618-14.643h4.956l3.434,9.729a1.412,1.412,0,0,0,1.332.943h16.33a1.412,1.412,0,0,0,1.332-.943l3.435-9.729h5c5.732,0,11.873,6.152,14.613,14.643,2.413,7.479,1.633,15.2-1.941,19.21Z" fill="#453d7a"/><path d="M443.476,4623.887a4.848,4.848,0,0,0-6.856.246,4.865,4.865,0,0,0,.246,6.86,4.815,4.815,0,0,0,3.3,1.3l.178,0a4.814,4.814,0,0,0,3.377-1.545,4.863,4.863,0,0,0-.246-6.859Zm-1.824,4.936a2.021,2.021,0,0,1-2.86.1,2.034,2.034,0,0,1-.1-2.869,2.012,2.012,0,0,1,1.409-.645h.074a2.008,2.008,0,0,1,1.377.543h0a2.034,2.034,0,0,1,.1,2.869Z" fill="#453d7a"/><path d="M460.284,4623.887a4.847,4.847,0,0,0-6.856.247,4.865,4.865,0,0,0,.246,6.859,4.815,4.815,0,0,0,3.3,1.3l.178,0a4.812,4.812,0,0,0,3.377-1.545A4.862,4.862,0,0,0,460.284,4623.887Zm-1.823,4.936a2.027,2.027,0,1,1-1.554-3.411h.074a2.008,2.008,0,0,1,1.377.543h0a2.035,2.035,0,0,1,.1,2.869Z" fill="#453d7a"/><path d="M433.268,4617.357h-2.821v-2.826a1.412,1.412,0,0,0-2.825,0v2.826H424.8a1.413,1.413,0,1,0,0,2.825h2.82v2.826a1.412,1.412,0,1,0,2.825,0v-2.826h2.821a1.413,1.413,0,0,0,0-2.825Z" fill="#453d7a"/><path d="M428.893,4567.111a14.693,14.693,0,1,0,11.794,23.437,1.412,1.412,0,0,0-.136-1.838l-7.293-7.3,6.947-6.956a1.413,1.413,0,0,0,.1-1.886,14.616,14.616,0,0,0-11.411-5.454Zm1.369,13.3a1.413,1.413,0,0,0,0,2l7.388,7.4a11.729,11.729,0,0,1-8.758,3.87,11.867,11.867,0,1,1,8.369-20.271Z" fill="#453d7a"/><path d="M481.833,4582.73a1.407,1.407,0,0,0,.332-1.124l-.861-6.073a9.787,9.787,0,0,0-19.382,0l-.862,6.073a1.413,1.413,0,0,0,1.4,1.611h4.023l-.9,6.329a6.089,6.089,0,1,0,12.055,0l-.9-6.329h4.023A1.412,1.412,0,0,0,481.833,4582.73Zm-7.758,9.818a3.264,3.264,0,0,1-5.693-2.606l.954-6.725h4.554l.954,6.725a3.272,3.272,0,0,1-.769,2.606Zm-9.989-12.156.633-4.462a6.962,6.962,0,0,1,13.788,0l.633,4.462Z" fill="#453d7a"/><circle cx="1.411" cy="1.411" r="1.411" transform="translate(439.413 4580.271)" fill="#453d7a"/><circle cx="1.411" cy="1.411" r="1.411" transform="translate(444.464 4580.269)" fill="#453d7a"/><circle cx="1.411" cy="1.411" r="1.411" transform="translate(449.63 4580.271)" fill="#453d7a"/><circle cx="1.411" cy="1.411" r="1.411" transform="translate(454.957 4580.269)" fill="#453d7a"/><circle cx="1.411" cy="1.411" r="1.411" transform="translate(426.746 4573.473)" fill="#453d7a"/><circle cx="1.411" cy="1.411" r="1.411" transform="translate(462.472 4617.36)" fill="#453d7a"/><circle cx="1.411" cy="1.411" r="1.411" transform="translate(470.938 4617.36)" fill="#453d7a"/><circle cx="1.411" cy="1.411" r="1.411" transform="translate(466.706 4613.12)" fill="#453d7a"/><circle cx="1.411" cy="1.411" r="1.411" transform="translate(466.706 4621.598)" fill="#453d7a"/></g></svg>